M48
;DRILL file {KiCad (5.0.0-3-g5ebb6b6)} date Sunday, 27. September 2020 um 13:58:15
;FORMAT={-:-/ absolute / inch / decimal}
FMAT,2
INCH,TZ
T1C0.0197
%
G90
G05
M72
T1
X7.3634Y-2.2138
X7.3921Y-4.0622
X7.3984Y-2.215
X7.6398Y-2.9524
X5.139Y-2.2248
X7.3563Y-4.061
X7.6555Y-2.9839
X5.1744Y-2.226
X6.0626Y-2.2398
X5.1543Y-4.0728
X6.1Y-2.239
X5.1894Y-4.0736
X4.8953Y-3.2862
X6.7776Y-3.6823
X4.9098Y-3.3189
X6.8035Y-3.7055
X6.4551Y-4.0441
X6.4244Y-3.0614
X6.4906Y-4.0441
X5.7787Y-2.5976
X5.702Y-2.6276
X6.8244Y-3.6291
X5.7264Y-2.6535
X6.8488Y-3.6524
X5.7531Y-2.5752
X6.1343Y-3.2287
X6.1547Y-3.2555
X6.402Y-3.0331
T0
M30
