  0
SECTION
  2
HEADER
  9
$ACADVER
  1
AC1014
  9
$HANDSEED
  5
FFFF
  9
$MEASUREMENT
 70
     1
  0
ENDSEC
  0
SECTION
  2
TABLES
  0
TABLE
  2
VPORT
  5
8
330
0
100
AcDbSymbolTable
 70
     4
  0
VPORT
  5
2E
330
8
100
AcDbSymbolTableRecord
100
AcDbViewportTableRecord
  2
*ACTIVE
 70
     0
 10
0.0
 20
0.0
 11
1.0
 21
1.0
 12
210.0
 22
148.5
 13
0.0
 23
0.0
 14
10.0
 24
10.0
 15
10.0
 25
10.0
 16
0.0
 26
0.0
 36
1.0
 17
0.0
 27
0.0
 37
0.0
 40
341.0
 41
1.24
 42
50.0
 43
0.0
 44
0.0
 50
0.0
 51
0.0
 71
     0
 72
   100
 73
     1
 74
     3
 75
     0
 76
     0
 77
     0
 78
     0
  0
ENDTAB
  0
TABLE
  2
LTYPE
  5
5
330
0
100
AcDbSymbolTable
 70
     1
  0
LTYPE
  5
14
330
5
100
AcDbSymbolTableRecord
100
AcDbLinetypeTableRecord
  2
BYBLOCK
 70
     0
  3

 72
    65
 73
     0
 40
0.0
  0
LTYPE
  5
15
330
5
100
AcDbSymbolTableRecord
100
AcDbLinetypeTableRecord
  2
BYLAYER
 70
     0
  3

 72
    65
 73
     0
 40
0.0
  0
LTYPE
  5
16
330
5
100
AcDbSymbolTableRecord
100
AcDbLinetypeTableRecord
  2
CONTINUOUS
 70
     0
  3
Solid line
 72
    65
 73
     0
 40
0.0
  0
ENDTAB
  0
TABLE
  2
LAYER
  5
2
100
AcDbSymbolTable
 70
2
  0
LAYER
  5
50
100
AcDbSymbolTableRecord
100
AcDbLayerTableRecord
  2
0
 70
0
  6
CONTINUOUS
  0
LAYER
  5
51
100
AcDbSymbolTableRecord
100
AcDbLayerTableRecord
  2
cut
 70
0
  6
CONTINUOUS
  0
ENDTAB
  0
TABLE
  2
STYLE
  5
3
330
0
100
AcDbSymbolTable
 70
     1
  0
STYLE
  5
11
330
3
100
AcDbSymbolTableRecord
100
AcDbTextStyleTableRecord
  2
STANDARD
 70
     0
 40
0.0
 41
1.0
 50
0.0
 71
     0
 42
2.5
  3
txt
  4

  0
ENDTAB
  0
TABLE
  2
VIEW
  5
6
330
0
100
AcDbSymbolTable
 70
     0
  0
ENDTAB
  0
TABLE
  2
UCS
  5
7
330
0
100
AcDbSymbolTable
 70
     0
  0
ENDTAB
  0
TABLE
  2
APPID
  5
9
330
0
100
AcDbSymbolTable
 70
     2
  0
APPID
  5
12
330
9
100
AcDbSymbolTableRecord
100
AcDbRegAppTableRecord
  2
ACAD
 70
     0
  0
ENDTAB
  0
TABLE
  2
DIMSTYLE
  5
A
330
0
100
AcDbSymbolTable
 70
     1
  0
DIMSTYLE
105
27
330
A
100
AcDbSymbolTableRecord
100
AcDbDimStyleTableRecord
  2
ISO-25
 70
     0
  3

  4

  5

  6

  7

 40
1.0
 41
2.5
 42
0.625
 43
3.75
 44
1.25
 45
0.0
 46
0.0
 47
0.0
 48
0.0
140
2.5
141
2.5
142
0.0
143
0.03937007874016
144
1.0
145
0.0
146
1.0
147
0.625
 71
     0
 72
     0
 73
     0
 74
     0
 75
     0
 76
     0
 77
     1
 78
     8
170
     0
171
     3
172
     1
173
     0
174
     0
175
     0
176
     0
177
     0
178
     0
270
     2
271
     2
272
     2
273
     2
274
     3
340
11
275
     0
280
     0
281
     0
282
     0
283
     0
284
     8
285
     0
286
     0
287
     3
288
     0
  0
ENDTAB
  0
TABLE
  2
BLOCK_RECORD
  5
1
330
0
100
AcDbSymbolTable
 70
     1
  0
BLOCK_RECORD
  5
1F
330
1
100
AcDbSymbolTableRecord
100
AcDbBlockTableRecord
  2
*MODEL_SPACE
  0
BLOCK_RECORD
  5
1B
330
1
100
AcDbSymbolTableRecord
100
AcDbBlockTableRecord
  2
*PAPER_SPACE
  0
ENDTAB
  0
ENDSEC
  0
SECTION
  2
BLOCKS
  0
BLOCK
  5
20
330
1F
100
AcDbEntity
  8
0
100
AcDbBlockBegin
  2
*MODEL_SPACE
 70
     0
 10
0.0
 20
0.0
 30
0.0
  3
*MODEL_SPACE
  1

  0
ENDBLK
  5
21
330
1F
100
AcDbEntity
  8
0
100
AcDbBlockEnd
  0
BLOCK
  5
1C
330
1B
100
AcDbEntity
 67
     1
  8
0
100
AcDbBlockBegin
  2
*PAPER_SPACE
  1

  0
ENDBLK
  5
1D
330
1B
100
AcDbEntity
 67
     1
  8
0
100
AcDbBlockEnd
  0
ENDSEC
  0
SECTION
  2
ENTITIES
  0
LWPOLYLINE
  5
100
100
AcDbEntity
  8
cut
 62
7
100
AcDbPolyline
 90
4
 70
1
 10
44.548702
 20
256.102238
 30
0.0
 10
44.548702
 20
200.479795
 30
0.0
 10
135.803077
 20
200.479795
 30
0.0
 10
135.803077
 20
256.102238
 30
0.0
  0
LWPOLYLINE
  5
101
100
AcDbEntity
  8
cut
 62
7
100
AcDbPolyline
 90
52
 70
1
 10
107.784634
 20
253.657427
 30
0.0
 10
109.039854
 20
253.657427
 30
0.0
 10
110.295075
 20
253.656898
 30
0.0
 10
111.998330
 20
253.654252
 30
0.0
 10
113.701585
 20
253.651157
 30
0.0
 10
115.404840
 20
253.646500
 30
0.0
 10
117.108096
 20
253.641843
 30
0.0
 10
117.108096
 20
253.112677
 30
0.0
 10
117.108096
 20
252.583510
 30
0.0
 10
117.108096
 20
252.054343
 30
0.0
 10
117.108096
 20
251.525695
 30
0.0
 10
114.179592
 20
251.532416
 30
0.0
 10
111.251088
 20
251.539136
 30
0.0
 10
108.323103
 20
251.545857
 30
0.0
 10
105.394600
 20
251.553080
 30
0.0
 10
104.587930
 20
251.125198
 30
0.0
 10
103.777644
 20
250.706103
 30
0.0
 10
102.960121
 20
250.301476
 30
0.0
 10
102.132782
 20
249.917521
 30
0.0
 10
101.294590
 20
249.559405
 30
0.0
 10
100.448648
 20
249.221439
 30
0.0
 10
99.600638
 20
248.888128
 30
0.0
 10
98.756762
 20
248.543444
 30
0.0
 10
97.318607
 20
247.950717
 30
0.0
 10
95.884586
 20
247.347652
 30
0.0
 10
94.455214
 20
246.734253
 30
0.0
 10
93.029981
 20
246.111553
 30
0.0
 10
92.637754
 20
245.947739
 30
0.0
 10
92.245015
 20
245.784441
 30
0.0
 10
91.852273
 20
245.622177
 30
0.0
 10
91.459017
 20
245.460429
 30
0.0
 10
90.140749
 20
246.706347
 30
0.0
 10
88.824034
 20
247.953299
 30
0.0
 10
87.508351
 20
249.201286
 30
0.0
 10
86.192671
 20
250.450304
 30
0.0
 10
86.192671
 20
251.135535
 30
0.0
 10
86.192671
 20
251.820764
 30
0.0
 10
86.192671
 20
252.505992
 30
0.0
 10
86.192671
 20
253.191224
 30
0.0
 10
87.678886
 20
251.946854
 30
0.0
 10
89.101537
 20
250.625488
 30
0.0
 10
90.499384
 20
249.274665
 30
0.0
 10
91.912219
 20
247.943480
 30
0.0
 10
93.847501
 20
248.765136
 30
0.0
 10
95.782782
 20
249.586276
 30
0.0
 10
97.722199
 20
250.399144
 30
0.0
 10
99.667818
 20
251.195995
 30
0.0
 10
101.092020
 20
251.761336
 30
0.0
 10
102.467128
 20
252.441397
 30
0.0
 10
103.844306
 20
253.112674
 30
0.0
 10
105.273677
 20
253.654244
 30
0.0
 10
106.528898
 20
253.656361
 30
0.0
  0
LWPOLYLINE
  5
102
100
AcDbEntity
  8
cut
 62
7
100
AcDbPolyline
 90
124
 70
1
 10
125.772168
 20
253.651236
 30
0.0
 10
126.312185
 20
253.607310
 30
0.0
 10
127.183450
 20
253.418691
 30
0.0
 10
127.808218
 20
253.075045
 30
0.0
 10
128.332218
 20
252.568614
 30
0.0
 10
128.872751
 20
251.959350
 30
0.0
 10
129.384349
 20
251.280321
 30
0.0
 10
129.717145
 20
250.724283
 30
0.0
 10
129.720240
 20
250.481403
 30
0.0
 10
129.168854
 20
250.185298
 30
0.0
 10
128.756475
 20
249.971358
 30
0.0
 10
128.344098
 20
249.756900
 30
0.0
 10
127.793227
 20
249.459760
 30
0.0
 10
127.353976
 20
249.219465
 30
0.0
 10
126.914210
 20
248.978652
 30
0.0
 10
126.474959
 20
248.738358
 30
0.0
 10
126.035195
 20
248.497544
 30
0.0
 10
125.253330
 20
248.072248
 30
0.0
 10
124.470431
 20
247.649018
 30
0.0
 10
123.685984
 20
247.228888
 30
0.0
 10
122.898951
 20
246.812895
 30
0.0
 10
122.661758
 20
246.694555
 30
0.0
 10
122.425596
 20
246.572082
 30
0.0
 10
122.197187
 20
246.447542
 30
0.0
 10
121.982729
 20
246.323519
 30
0.0
 10
121.568283
 20
246.059967
 30
0.0
 10
121.170376
 20
245.769029
 30
0.0
 10
120.799856
 20
245.446568
 30
0.0
 10
120.467058
 20
245.086901
 30
0.0
 10
120.251052
 20
244.470401
 30
0.0
 10
119.910504
 20
243.909196
 30
0.0
 10
119.450584
 20
243.449792
 30
0.0
 10
118.876975
 20
243.137150
 30
0.0
 10
118.578803
 20
242.777480
 30
0.0
 10
118.314220
 20
242.429183
 30
0.0
 10
118.100278
 20
242.119123
 30
0.0
 10
117.954551
 20
241.872111
 30
0.0
 10
118.364861
 20
241.563601
 30
0.0
 10
118.775172
 20
241.255610
 30
0.0
 10
119.184966
 20
240.947101
 30
0.0
 10
119.595277
 20
240.638594
 30
0.0
 10
120.581781
 20
239.979718
 30
0.0
 10
121.525391
 20
239.258832
 30
0.0
 10
122.427146
 20
238.485238
 30
0.0
 10
123.286008
 20
237.666683
 30
0.0
 10
124.029632
 20
236.895669
 30
0.0
 10
124.717962
 20
236.078664
 30
0.0
 10
125.352549
 20
235.219803
 30
0.0
 10
125.934426
 20
234.324768
 30
0.0
 10
125.491043
 20
234.082404
 30
0.0
 10
125.047657
 20
233.840559
 30
0.0
 10
124.604273
 20
233.598196
 30
0.0
 10
124.160890
 20
233.355835
 30
0.0
 10
123.551626
 20
234.272574
 30
0.0
 10
122.882931
 20
235.147455
 30
0.0
 10
122.163595
 20
235.981515
 30
0.0
 10
121.403952
 20
236.778363
 30
0.0
 10
120.716655
 20
237.423285
 30
0.0
 10
119.998354
 20
238.036168
 30
0.0
 10
119.249562
 20
238.612362
 30
0.0
 10
118.470798
 20
239.146696
 30
0.0
 10
118.028965
 20
239.391123
 30
0.0
 10
117.586616
 20
239.635553
 30
0.0
 10
117.144780
 20
239.879467
 30
0.0
 10
116.702431
 20
240.123897
 30
0.0
 10
116.340179
 20
240.286161
 30
0.0
 10
115.973276
 20
240.437572
 30
0.0
 10
115.601722
 20
240.577615
 30
0.0
 10
115.225000
 20
240.705774
 30
0.0
 10
115.115447
 20
240.738329
 30
0.0
 10
115.005894
 20
240.771402
 30
0.0
 10
114.895822
 20
240.803443
 30
0.0
 10
114.785234
 20
240.832380
 30
0.0
 10
115.013127
 20
241.212719
 30
0.0
 10
115.238439
 20
241.585305
 30
0.0
 10
115.470465
 20
241.953758
 30
0.0
 10
115.719028
 20
242.322212
 30
0.0
 10
116.139157
 20
242.869981
 30
0.0
 10
116.552568
 20
243.422402
 30
0.0
 10
116.961329
 20
243.978443
 30
0.0
 10
117.367506
 20
244.536547
 30
0.0
 10
117.671880
 20
244.591842
 30
0.0
 10
117.958683
 20
244.717932
 30
0.0
 10
118.184510
 20
244.919986
 30
0.0
 10
118.304401
 20
245.205239
 30
0.0
 10
118.326097
 20
245.335983
 30
0.0
 10
118.327155
 20
245.470857
 30
0.0
 10
118.324060
 20
245.603148
 30
0.0
 10
118.335437
 20
245.726656
 30
0.0
 10
118.654281
 20
246.025344
 30
0.0
 10
118.963822
 20
246.334888
 30
0.0
 10
119.259928
 20
246.656314
 30
0.0
 10
119.537949
 20
246.991695
 30
0.0
 10
119.947741
 20
247.255760
 30
0.0
 10
120.358571
 20
247.517245
 30
0.0
 10
120.778184
 20
247.764773
 30
0.0
 10
121.212780
 20
247.985433
 30
0.0
 10
122.177062
 20
248.496513
 30
0.0
 10
123.137727
 20
249.014310
 30
0.0
 10
124.096326
 20
249.536243
 30
0.0
 10
125.054406
 20
250.059724
 30
0.0
 10
125.494173
 20
250.299502
 30
0.0
 10
125.933423
 20
250.539797
 30
0.0
 10
126.373190
 20
250.779576
 30
0.0
 10
126.812957
 20
251.019354
 30
0.0
 10
126.716320
 20
251.209524
 30
0.0
 10
126.597983
 20
251.346982
 30
0.0
 10
126.477576
 20
251.438968
 30
0.0
 10
126.375256
 20
251.492712
 30
0.0
 10
124.558831
 20
251.507185
 30
0.0
 10
122.741887
 20
251.513905
 30
0.0
 10
120.925461
 20
251.517001
 30
0.0
 10
119.108517
 20
251.521129
 30
0.0
 10
119.108517
 20
252.049779
 30
0.0
 10
119.108517
 20
252.578427
 30
0.0
 10
119.108517
 20
253.107078
 30
0.0
 10
119.108517
 20
253.635729
 30
0.0
 10
120.671213
 20
253.630569
 30
0.0
 10
122.233908
 20
253.625410
 30
0.0
 10
123.797119
 20
253.619722
 30
0.0
 10
125.359815
 20
253.614562
 30
0.0
 10
125.462134
 20
253.628003
 30
0.0
 10
125.565486
 20
253.638348
 30
0.0
 10
125.694679
 20
253.646101
 30
0.0
  0
LWPOLYLINE
  5
103
100
AcDbEntity
  8
cut
 62
7
100
AcDbPolyline
 90
148
 70
1
 10
60.634025
 20
253.344796
 30
0.0
 10
60.634025
 20
252.815110
 30
0.0
 10
60.634025
 20
252.284912
 30
0.0
 10
60.634025
 20
251.754711
 30
0.0
 10
60.634025
 20
251.225028
 30
0.0
 10
59.674394
 20
251.118573
 30
0.0
 10
58.731297
 20
250.918069
 30
0.0
 10
57.821792
 20
250.605943
 30
0.0
 10
56.964481
 20
250.164110
 30
0.0
 10
55.879277
 20
249.406018
 30
0.0
 10
54.888637
 20
248.528551
 30
0.0
 10
53.984818
 20
247.558586
 30
0.0
 10
53.160061
 20
246.522988
 30
0.0
 10
52.444342
 20
246.524576
 30
0.0
 10
51.727591
 20
246.517352
 30
0.0
 10
51.012388
 20
246.480144
 30
0.0
 10
50.302355
 20
246.391263
 30
0.0
 10
49.967493
 20
246.286358
 30
0.0
 10
49.670869
 20
246.104457
 30
0.0
 10
49.416620
 20
245.863128
 30
0.0
 10
49.208367
 20
245.580458
 30
0.0
 10
49.114831
 20
245.452301
 30
0.0
 10
49.020780
 20
245.323627
 30
0.0
 10
48.927247
 20
245.195468
 30
0.0
 10
48.833195
 20
245.066796
 30
0.0
 10
50.168513
 20
244.829083
 30
0.0
 10
51.503833
 20
244.593956
 30
0.0
 10
52.838635
 20
244.356244
 30
0.0
 10
54.172402
 20
244.112332
 30
0.0
 10
54.387895
 20
244.013630
 30
0.0
 10
54.545507
 20
243.842579
 30
0.0
 10
54.638008
 20
243.625539
 30
0.0
 10
54.657640
 20
243.389377
 30
0.0
 10
54.718100
 20
243.205925
 30
0.0
 10
54.782180
 20
243.021442
 30
0.0
 10
54.836956
 20
242.835924
 30
0.0
 10
54.867447
 20
242.648337
 30
0.0
 10
54.684511
 20
242.395123
 30
0.0
 10
54.532582
 20
242.121237
 30
0.0
 10
54.423029
 20
241.829267
 30
0.0
 10
54.368252
 20
241.521792
 30
0.0
 10
53.253592
 20
240.246934
 30
0.0
 10
52.136862
 20
238.972592
 30
0.0
 10
51.021686
 20
237.697218
 30
0.0
 10
49.910642
 20
236.418744
 30
0.0
 10
49.731326
 20
236.094732
 30
0.0
 10
49.552007
 20
235.770721
 30
0.0
 10
49.372691
 20
235.446710
 30
0.0
 10
49.192857
 20
235.122698
 30
0.0
 10
49.558209
 20
235.260157
 30
0.0
 10
49.925112
 20
235.393483
 30
0.0
 10
50.290981
 20
235.529911
 30
0.0
 10
50.651166
 20
235.676154
 30
0.0
 10
51.519330
 20
236.224442
 30
0.0
 10
52.394212
 20
236.762393
 30
0.0
 10
53.283564
 20
237.273988
 30
0.0
 10
54.196686
 20
237.742176
 30
0.0
 10
54.326911
 20
237.800054
 30
0.0
 10
54.462304
 20
237.843464
 30
0.0
 10
54.595627
 20
237.842935
 30
0.0
 10
54.719651
 20
237.769556
 30
0.0
 10
54.754793
 20
237.630030
 30
0.0
 10
54.716550
 20
237.486885
 30
0.0
 10
54.646271
 20
237.345291
 30
0.0
 10
54.584777
 20
237.210417
 30
0.0
 10
54.162062
 20
236.264738
 30
0.0
 10
53.779657
 20
235.300456
 30
0.0
 10
53.464949
 20
234.313952
 30
0.0
 10
53.244805
 20
233.301611
 30
0.0
 10
53.230332
 20
233.052530
 30
0.0
 10
53.224644
 20
232.802932
 30
0.0
 10
53.226231
 20
232.553853
 30
0.0
 10
53.234486
 20
232.304772
 30
0.0
 10
53.294430
 20
231.808162
 30
0.0
 10
53.354377
 20
231.311553
 30
0.0
 10
53.414321
 20
230.814940
 30
0.0
 10
53.473749
 20
230.318331
 30
0.0
 10
53.484597
 20
230.252701
 30
0.0
 10
53.495445
 20
230.187589
 30
0.0
 10
53.505790
 20
230.121960
 30
0.0
 10
53.516638
 20
230.056332
 30
0.0
 10
53.783803
 20
228.800077
 30
0.0
 10
54.110400
 20
227.556226
 30
0.0
 10
54.503658
 20
226.332010
 30
0.0
 10
54.968229
 20
225.134151
 30
0.0
 10
54.507275
 20
224.904191
 30
0.0
 10
54.045804
 20
224.673713
 30
0.0
 10
53.584850
 20
224.443753
 30
0.0
 10
53.123380
 20
224.213277
 30
0.0
 10
52.744592
 20
225.101594
 30
0.0
 10
52.406110
 20
226.005932
 30
0.0
 10
52.106903
 20
226.922671
 30
0.0
 10
51.846971
 20
227.849747
 30
0.0
 10
51.713129
 20
228.386150
 30
0.0
 10
51.595308
 20
228.925651
 30
0.0
 10
51.489371
 20
229.467738
 30
0.0
 10
51.390668
 20
230.011372
 30
0.0
 10
51.320906
 20
230.506434
 30
0.0
 10
51.251143
 20
231.002009
 30
0.0
 10
51.181380
 20
231.497071
 30
0.0
 10
51.111099
 20
231.992130
 30
0.0
 10
51.114195
 20
232.499077
 30
0.0
 10
51.157086
 20
233.009122
 30
0.0
 10
51.239769
 20
233.539839
 30
0.0
 10
51.361207
 20
234.110863
 30
0.0
 10
51.359090
 20
234.109805
 30
0.0
 10
51.356445
 20
234.108217
 30
0.0
 10
51.354328
 20
234.107159
 30
0.0
 10
51.351682
 20
234.105571
 30
0.0
 10
50.723297
 20
233.753138
 30
0.0
 10
50.080957
 20
233.404322
 30
0.0
 10
49.428802
 20
233.129404
 30
0.0
 10
48.770444
 20
232.998147
 30
0.0
 10
48.341528
 20
233.145425
 30
0.0
 10
47.935353
 20
233.440496
 30
0.0
 10
47.568966
 20
233.869409
 30
0.0
 10
47.259425
 20
234.419764
 30
0.0
 10
47.114213
 20
235.146852
 30
0.0
 10
47.257358
 20
235.866704
 30
0.0
 10
47.570000
 20
236.560203
 30
0.0
 10
47.931736
 20
237.208742
 30
0.0
 10
48.792148
 20
238.337354
 30
0.0
 10
49.705270
 20
239.425143
 30
0.0
 10
50.648364
 20
240.488644
 30
0.0
 10
51.598694
 20
241.543876
 30
0.0
 10
51.820386
 20
241.802261
 30
0.0
 10
52.085488
 20
242.095265
 30
0.0
 10
52.165069
 20
242.320574
 30
0.0
 10
51.827622
 20
242.373800
 30
0.0
 10
50.837501
 20
242.575855
 30
0.0
 10
49.834461
 20
242.723135
 30
0.0
 10
48.842273
 20
242.911235
 30
0.0
 10
47.886260
 20
243.234215
 30
0.0
 10
47.089927
 20
243.903941
 30
0.0
 10
46.788136
 20
244.865122
 30
0.0
 10
46.924563
 20
245.903302
 30
0.0
 10
47.443392
 20
246.804539
 30
0.0
 10
48.353932
 20
247.763135
 30
0.0
 10
49.521303
 20
248.336228
 30
0.0
 10
50.824582
 20
248.601843
 30
0.0
 10
52.142331
 20
248.638536
 30
0.0
 10
52.531972
 20
249.100006
 30
0.0
 10
52.936597
 20
249.548041
 30
0.0
 10
53.358277
 20
249.980571
 30
0.0
 10
53.796493
 20
250.395533
 30
0.0
 10
55.268238
 20
251.610447
 30
0.0
 10
56.938420
 20
252.499280
 30
0.0
 10
58.746580
 20
253.073923
 30
0.0
  0
LWPOLYLINE
  5
104
100
AcDbEntity
  8
cut
 62
7
100
AcDbPolyline
 90
120
 70
1
 10
62.633902
 20
253.313789
 30
0.0
 10
62.850945
 20
253.296750
 30
0.0
 10
63.066950
 20
253.267294
 30
0.0
 10
63.282959
 20
253.238354
 30
0.0
 10
63.497414
 20
253.205799
 30
0.0
 10
66.061084
 20
252.592916
 30
0.0
 10
68.409777
 20
251.425029
 30
0.0
 10
70.513008
 20
249.829261
 30
0.0
 10
72.340802
 20
247.932736
 30
0.0
 10
72.921648
 20
247.249055
 30
0.0
 10
73.412055
 20
246.504914
 30
0.0
 10
73.840969
 20
245.720467
 30
0.0
 10
74.238362
 20
244.917933
 30
0.0
 10
74.737038
 20
245.405759
 30
0.0
 10
75.358190
 20
245.724600
 30
0.0
 10
76.044453
 20
245.861543
 30
0.0
 10
76.740019
 20
245.804700
 30
0.0
 10
77.107438
 20
246.445486
 30
0.0
 10
77.558574
 20
247.074390
 30
0.0
 10
78.089288
 20
247.647480
 30
0.0
 10
78.694938
 20
248.119804
 30
0.0
 10
79.054604
 20
248.294987
 30
0.0
 10
79.272679
 20
248.595226
 30
0.0
 10
79.430292
 20
248.957480
 30
0.0
 10
79.607544
 20
249.320248
 30
0.0
 10
79.907783
 20
249.700586
 30
0.0
 10
80.152728
 20
250.111413
 30
0.0
 10
80.386308
 20
250.530510
 30
0.0
 10
80.650373
 20
250.937720
 30
0.0
 10
81.223465
 20
251.410559
 30
0.0
 10
81.829629
 20
251.854459
 30
0.0
 10
82.480752
 20
252.219811
 30
0.0
 10
83.189238
 20
252.457007
 30
0.0
 10
83.411961
 20
252.658546
 30
0.0
 10
83.655357
 20
252.853882
 30
0.0
 10
83.916842
 20
253.035783
 30
0.0
 10
84.192792
 20
253.197013
 30
0.0
 10
84.192792
 20
252.512819
 30
0.0
 10
84.192792
 20
251.828622
 30
0.0
 10
84.192792
 20
251.144941
 30
0.0
 10
84.192792
 20
250.460747
 30
0.0
 10
83.936476
 20
250.414755
 30
0.0
 10
83.679645
 20
250.369278
 30
0.0
 10
83.423330
 20
250.323804
 30
0.0
 10
83.166499
 20
250.278328
 30
0.0
 10
83.104486
 20
250.103663
 30
0.0
 10
83.042476
 20
249.928996
 30
0.0
 10
82.980463
 20
249.754328
 30
0.0
 10
82.918452
 20
249.579664
 30
0.0
 10
82.743269
 20
249.579664
 30
0.0
 10
82.568086
 20
249.579664
 30
0.0
 10
82.392903
 20
249.579664
 30
0.0
 10
82.217719
 20
249.579664
 30
0.0
 10
82.162943
 20
249.333167
 30
0.0
 10
82.108166
 20
249.086152
 30
0.0
 10
82.053389
 20
248.839656
 30
0.0
 10
81.998613
 20
248.593160
 30
0.0
 10
81.687518
 20
248.475338
 30
0.0
 10
81.439990
 20
248.258813
 30
0.0
 10
81.275657
 20
247.972526
 30
0.0
 10
81.213131
 20
247.645414
 30
0.0
 10
81.202283
 20
247.451112
 30
0.0
 10
81.208474
 20
247.255257
 30
0.0
 10
81.220883
 20
247.060955
 30
0.0
 10
81.228635
 20
246.871817
 30
0.0
 10
81.096860
 20
246.765881
 30
0.0
 10
80.975937
 20
246.645993
 30
0.0
 10
80.865349
 20
246.518869
 30
0.0
 10
80.762514
 20
246.391228
 30
0.0
 10
80.499481
 20
246.354536
 30
0.0
 10
80.234382
 20
246.340592
 30
0.0
 10
79.968248
 20
246.340063
 30
0.0
 10
79.702630
 20
246.341651
 30
0.0
 10
79.517112
 20
246.069831
 30
0.0
 10
79.321775
 20
245.804732
 30
0.0
 10
79.107833
 20
245.555650
 30
0.0
 10
78.865472
 20
245.334477
 30
0.0
 10
78.707860
 20
245.017699
 30
0.0
 10
78.671168
 20
244.668367
 30
0.0
 10
78.711477
 20
244.308698
 30
0.0
 10
78.783306
 20
243.961433
 30
0.0
 10
78.803970
 20
243.864283
 30
0.0
 10
78.840660
 20
243.756793
 30
0.0
 10
78.838014
 20
243.680313
 30
0.0
 10
78.740346
 20
243.674624
 30
0.0
 10
78.040647
 20
243.675153
 30
0.0
 10
77.340433
 20
243.690129
 30
0.0
 10
76.641250
 20
243.712354
 30
0.0
 10
75.941551
 20
243.736113
 30
0.0
 10
76.085212
 20
243.589870
 30
0.0
 10
76.228354
 20
243.442590
 30
0.0
 10
76.370981
 20
243.295312
 30
0.0
 10
76.513610
 20
243.147519
 30
0.0
 10
76.118801
 20
242.712403
 30
0.0
 10
75.723992
 20
242.276772
 30
0.0
 10
75.328668
 20
241.841654
 30
0.0
 10
74.933859
 20
241.406539
 30
0.0
 10
74.410895
 20
241.804965
 30
0.0
 10
73.887414
 20
242.203390
 30
0.0
 10
73.364446
 20
242.602331
 30
0.0
 10
72.841481
 20
243.000757
 30
0.0
 10
72.559846
 20
243.540777
 30
0.0
 10
72.290611
 20
244.086480
 30
0.0
 10
72.025512
 20
244.634765
 30
0.0
 10
71.757309
 20
245.180987
 30
0.0
 10
71.230211
 20
245.952515
 30
0.0
 10
70.639032
 20
246.675986
 30
0.0
 10
70.002378
 20
247.361730
 30
0.0
 10
69.338853
 20
248.020091
 30
0.0
 10
68.524431
 20
248.744075
 30
0.0
 10
67.661953
 20
249.412251
 30
0.0
 10
66.740044
 20
249.990511
 30
0.0
 10
65.749407
 20
250.445264
 30
0.0
 10
64.991315
 20
250.708297
 30
0.0
 10
64.216684
 20
250.918103
 30
0.0
 10
63.429654
 20
251.075716
 30
0.0
 10
62.633835
 20
251.182687
 30
0.0
 10
62.633835
 20
251.715470
 30
0.0
 10
62.633835
 20
252.248257
 30
0.0
 10
62.633835
 20
252.781040
 30
0.0
  0
LWPOLYLINE
  5
105
100
AcDbEntity
  8
cut
 62
7
100
AcDbPolyline
 90
61
 70
1
 10
114.444175
 20
246.008291
 30
0.0
 10
114.642613
 20
245.776265
 30
0.0
 10
114.844667
 20
245.546305
 30
0.0
 10
115.045174
 20
245.314795
 30
0.0
 10
115.239476
 20
245.078633
 30
0.0
 10
114.845186
 20
244.376868
 30
0.0
 10
114.433325
 20
243.684403
 30
0.0
 10
114.004927
 20
243.002273
 30
0.0
 10
113.558959
 20
242.332030
 30
0.0
 10
113.341919
 20
242.071064
 30
0.0
 10
113.115575
 20
241.818884
 30
0.0
 10
112.885615
 20
241.569287
 30
0.0
 10
112.659788
 20
241.316589
 30
0.0
 10
111.182876
 20
241.164660
 30
0.0
 10
109.726117
 20
240.881474
 30
0.0
 10
108.290031
 20
240.498034
 30
0.0
 10
106.876163
 20
240.045864
 30
0.0
 10
106.151142
 20
239.786450
 30
0.0
 10
105.435941
 20
239.502746
 30
0.0
 10
104.729006
 20
239.198372
 30
0.0
 10
104.029308
 20
238.877977
 30
0.0
 10
103.993134
 20
238.851106
 30
0.0
 10
103.963162
 20
238.834040
 30
0.0
 10
103.938873
 20
238.824727
 30
0.0
 10
103.919744
 20
238.823140
 30
0.0
 10
103.919744
 20
238.822610
 30
0.0
 10
103.886152
 20
238.855683
 30
0.0
 10
103.878400
 20
238.928028
 30
0.0
 10
103.882025
 20
239.017947
 30
0.0
 10
103.883612
 20
239.103730
 30
0.0
 10
103.883612
 20
239.104259
 30
0.0
 10
103.883612
 20
239.104789
 30
0.0
 10
103.883612
 20
239.105318
 30
0.0
 10
103.883612
 20
239.105847
 30
0.0
 10
103.948208
 20
239.244340
 30
0.0
 10
104.002468
 20
239.386967
 30
0.0
 10
104.045360
 20
239.533728
 30
0.0
 10
104.076366
 20
239.682557
 30
0.0
 10
104.328546
 20
239.919234
 30
0.0
 10
104.504764
 20
240.212239
 30
0.0
 10
104.607081
 20
240.540902
 30
0.0
 10
104.640154
 20
240.885067
 30
0.0
 10
104.643249
 20
241.002888
 30
0.0
 10
104.643779
 20
241.119162
 30
0.0
 10
104.670650
 20
241.224580
 30
0.0
 10
104.752297
 20
241.308813
 30
0.0
 10
104.935749
 20
241.531023
 30
0.0
 10
105.077859
 20
241.780620
 30
0.0
 10
105.168294
 20
242.052437
 30
0.0
 10
105.197231
 20
242.339240
 30
0.0
 10
105.299551
 20
242.446727
 30
0.0
 10
105.386369
 20
242.567650
 30
0.0
 10
105.465950
 20
242.692192
 30
0.0
 10
105.544497
 20
242.811048
 30
0.0
 10
107.438440
 20
243.541235
 30
0.0
 10
109.338064
 20
244.256954
 30
0.0
 10
111.245442
 20
244.950969
 30
0.0
 10
113.163671
 20
245.614494
 30
0.0
 10
113.482515
 20
245.717845
 30
0.0
 10
113.801357
 20
245.819133
 30
0.0
 10
114.122267
 20
245.916801
 30
0.0
  0
LWPOLYLINE
  5
106
100
AcDbEntity
  8
cut
 62
7
100
AcDbPolyline
 90
64
 70
1
 10
77.995755
 20
241.804414
 30
0.0
 10
78.606054
 20
241.350696
 30
0.0
 10
79.227205
 20
240.910930
 30
0.0
 10
79.856107
 20
240.482530
 30
0.0
 10
80.489144
 20
240.060852
 30
0.0
 10
80.257115
 20
239.932178
 30
0.0
 10
80.025604
 20
239.802468
 30
0.0
 10
79.795128
 20
239.671727
 30
0.0
 10
79.563618
 20
239.542020
 30
0.0
 10
81.245169
 20
237.846515
 30
0.0
 10
82.926205
 20
236.150496
 30
0.0
 10
84.607238
 20
234.454993
 30
0.0
 10
86.288789
 20
232.759488
 30
0.0
 10
86.822607
 20
233.185303
 30
0.0
 10
87.374512
 20
233.587345
 30
0.0
 10
87.945536
 20
233.960966
 30
0.0
 10
88.538782
 20
234.299445
 30
0.0
 10
88.734634
 20
234.411067
 30
0.0
 10
88.931005
 20
234.522687
 30
0.0
 10
89.126858
 20
234.634309
 30
0.0
 10
89.322713
 20
234.745929
 30
0.0
 10
89.841542
 20
234.459642
 30
0.0
 10
90.365026
 20
234.181107
 30
0.0
 10
90.888507
 20
233.904120
 30
0.0
 10
91.408889
 20
233.621450
 30
0.0
 10
91.609912
 20
233.446269
 30
0.0
 10
91.796464
 20
233.258682
 30
0.0
 10
91.971647
 20
233.065931
 30
0.0
 10
92.139078
 20
232.876793
 30
0.0
 10
92.406244
 20
232.556917
 30
0.0
 10
92.669795
 20
232.234456
 30
0.0
 10
92.930243
 20
231.909410
 30
0.0
 10
93.188109
 20
231.582298
 30
0.0
 10
91.357213
 20
230.267650
 30
0.0
 10
89.526834
 20
228.952485
 30
0.0
 10
87.696454
 20
227.637837
 30
0.0
 10
85.865559
 20
226.323189
 30
0.0
 10
85.352413
 20
227.021853
 30
0.0
 10
84.843399
 20
227.724136
 30
0.0
 10
84.336452
 20
228.427452
 30
0.0
 10
83.829508
 20
229.130254
 30
0.0
 10
83.370104
 20
229.767939
 30
0.0
 10
82.911216
 20
230.408728
 30
0.0
 10
82.497805
 20
231.075354
 30
0.0
 10
82.175344
 20
231.792623
 30
0.0
 10
82.003261
 20
232.294916
 30
0.0
 10
81.817743
 20
232.794111
 30
0.0
 10
81.581066
 20
233.266951
 30
0.0
 10
81.257054
 20
233.688114
 30
0.0
 10
80.631254
 20
234.447241
 30
0.0
 10
80.031806
 20
235.222388
 30
0.0
 10
79.435462
 20
236.000633
 30
0.0
 10
78.819993
 20
236.769063
 30
0.0
 10
78.660830
 20
236.934943
 30
0.0
 10
78.499083
 20
237.097726
 30
0.0
 10
78.346638
 20
237.268257
 30
0.0
 10
78.213830
 20
237.456876
 30
0.0
 10
77.769412
 20
238.108000
 30
0.0
 10
77.321377
 20
238.758089
 30
0.0
 10
76.861457
 20
239.399910
 30
0.0
 10
76.381900
 20
240.025711
 30
0.0
 10
76.785493
 20
240.470128
 30
0.0
 10
77.189086
 20
240.915062
 30
0.0
 10
77.592162
 20
241.359480
 30
0.0
  0
LWPOLYLINE
  5
107
100
AcDbEntity
  8
cut
 62
7
100
AcDbPolyline
 90
32
 70
1
 10
101.871300
 20
241.378599
 30
0.0
 10
101.853731
 20
241.142956
 30
0.0
 10
101.864579
 20
240.748663
 30
0.0
 10
101.900237
 20
240.433439
 30
0.0
 10
101.957080
 20
240.121312
 30
0.0
 10
102.018575
 20
239.796269
 30
0.0
 10
102.076968
 20
239.471223
 30
0.0
 10
102.117278
 20
239.144111
 30
0.0
 10
102.126062
 20
238.813382
 30
0.0
 10
102.131221
 20
238.664038
 30
0.0
 10
102.136381
 20
238.514691
 30
0.0
 10
102.141540
 20
238.365347
 30
0.0
 10
102.146699
 20
238.216003
 30
0.0
 10
101.796849
 20
238.160708
 30
0.0
 10
101.444932
 20
238.117816
 30
0.0
 10
101.091983
 20
238.087844
 30
0.0
 10
100.737999
 20
238.073900
 30
0.0
 10
100.329239
 20
238.115242
 30
0.0
 10
99.935981
 20
238.233579
 30
0.0
 10
99.558744
 20
238.405146
 30
0.0
 10
99.199590
 20
238.605652
 30
0.0
 10
98.844056
 20
238.838710
 30
0.0
 10
98.496791
 20
239.084175
 30
0.0
 10
98.152626
 20
239.334288
 30
0.0
 10
97.806395
 20
239.581303
 30
0.0
 10
98.503511
 20
239.939419
 30
0.0
 10
99.206308
 20
240.286169
 30
0.0
 10
99.919961
 20
240.610180
 30
0.0
 10
100.648599
 20
240.898534
 30
0.0
 10
100.954005
 20
241.018940
 30
0.0
 10
101.259414
 20
241.139863
 30
0.0
 10
101.564822
 20
241.289207
 30
0.0
  0
LWPOLYLINE
  5
108
100
AcDbEntity
  8
cut
 62
7
100
AcDbPolyline
 90
153
 70
1
 10
126.884759
 20
232.565186
 30
0.0
 10
126.884759
 20
232.564656
 30
0.0
 10
127.315742
 20
231.597274
 30
0.0
 10
127.698146
 20
230.609737
 30
0.0
 10
128.033011
 20
229.606181
 30
0.0
 10
128.320330
 20
228.589707
 30
0.0
 10
128.454172
 20
228.053823
 30
0.0
 10
128.571996
 20
227.514319
 30
0.0
 10
128.677933
 20
226.971717
 30
0.0
 10
128.776633
 20
226.428080
 30
0.0
 10
128.846398
 20
225.933021
 30
0.0
 10
128.916161
 20
225.437962
 30
0.0
 10
128.985924
 20
224.942900
 30
0.0
 10
129.056202
 20
224.447324
 30
0.0
 10
129.053107
 20
223.940378
 30
0.0
 10
129.010215
 20
223.430848
 30
0.0
 10
128.928049
 20
222.900131
 30
0.0
 10
128.806092
 20
222.328589
 30
0.0
 10
128.808209
 20
222.330176
 30
0.0
 10
128.810854
 20
222.331764
 30
0.0
 10
128.812971
 20
222.332822
 30
0.0
 10
128.815617
 20
222.334410
 30
0.0
 10
129.444002
 20
222.648602
 30
0.0
 10
130.086339
 20
222.933339
 30
0.0
 10
130.738497
 20
223.195856
 30
0.0
 10
131.396855
 20
223.441836
 30
0.0
 10
131.955993
 20
223.377238
 30
0.0
 10
132.458289
 20
222.964346
 30
0.0
 10
132.841210
 20
222.326141
 30
0.0
 10
133.039647
 20
221.587168
 30
0.0
 10
132.882035
 20
220.539685
 30
0.0
 10
132.446920
 20
219.570236
 30
0.0
 10
131.840754
 20
218.674685
 30
0.0
 10
131.169996
 20
217.848894
 30
0.0
 10
130.367459
 20
216.915619
 30
0.0
 10
129.552005
 20
215.993710
 30
0.0
 10
128.739136
 20
215.070253
 30
0.0
 10
127.943836
 20
214.132842
 30
0.0
 10
128.770140
 20
213.978331
 30
0.0
 10
129.595413
 20
213.824336
 30
0.0
 10
130.422754
 20
213.679124
 30
0.0
 10
131.252678
 20
213.550449
 30
0.0
 10
132.103787
 20
213.307054
 30
0.0
 10
132.826740
 20
212.802692
 30
0.0
 10
133.296997
 20
212.085938
 30
0.0
 10
133.391048
 20
211.203307
 30
0.0
 10
133.014327
 20
210.069525
 30
0.0
 10
132.297057
 20
209.107825
 30
0.0
 10
131.330190
 20
208.386423
 30
0.0
 10
130.204163
 20
207.975078
 30
0.0
 10
129.651740
 20
207.858807
 30
0.0
 10
129.086918
 20
207.836079
 30
0.0
 10
128.524162
 20
207.827295
 30
0.0
 10
127.976909
 20
207.755982
 30
0.0
 10
126.805919
 20
206.440818
 30
0.0
 10
125.476284
 20
205.274479
 30
0.0
 10
123.998340
 20
204.309165
 30
0.0
 10
122.381900
 20
203.599645
 30
0.0
 10
121.548359
 20
203.387256
 30
0.0
 10
120.701383
 20
203.230676
 30
0.0
 10
119.845104
 20
203.129391
 30
0.0
 10
118.983142
 20
203.082366
 30
0.0
 10
118.983142
 20
203.609464
 30
0.0
 10
118.983142
 20
204.136564
 30
0.0
 10
118.983142
 20
204.663664
 30
0.0
 10
118.983142
 20
205.191280
 30
0.0
 10
118.996583
 20
205.191280
 30
0.0
 10
119.010526
 20
205.190751
 30
0.0
 10
119.023967
 20
205.190751
 30
0.0
 10
119.037408
 20
205.190751
 30
0.0
 10
120.122612
 20
205.269298
 30
0.0
 10
121.195416
 20
205.459467
 30
0.0
 10
122.231011
 20
205.787096
 30
0.0
 10
123.203045
 20
206.276472
 30
0.0
 10
124.288765
 20
207.034566
 30
0.0
 10
125.279402
 20
207.911515
 30
0.0
 10
126.183224
 20
208.881480
 30
0.0
 10
127.007462
 20
209.917593
 30
0.0
 10
127.723700
 20
209.916006
 30
0.0
 10
128.440451
 20
209.922726
 30
0.0
 10
129.155135
 20
209.959935
 30
0.0
 10
129.865169
 20
210.048816
 30
0.0
 10
130.200549
 20
210.153721
 30
0.0
 10
130.497174
 20
210.335622
 30
0.0
 10
130.751420
 20
210.576951
 30
0.0
 10
130.959160
 20
210.859621
 30
0.0
 10
131.053211
 20
210.987777
 30
0.0
 10
131.146747
 20
211.116452
 30
0.0
 10
131.240796
 20
211.244611
 30
0.0
 10
131.334331
 20
211.373283
 30
0.0
 10
129.999529
 20
211.610995
 30
0.0
 10
128.663693
 20
211.846641
 30
0.0
 10
127.328891
 20
212.083835
 30
0.0
 10
125.995121
 20
212.327749
 30
0.0
 10
125.779632
 20
212.426449
 30
0.0
 10
125.622019
 20
212.597500
 30
0.0
 10
125.529518
 20
212.814540
 30
0.0
 10
125.509886
 20
213.050702
 30
0.0
 10
125.449940
 20
213.234153
 30
0.0
 10
125.385344
 20
213.418637
 30
0.0
 10
125.330568
 20
213.604155
 30
0.0
 10
125.300080
 20
213.791742
 30
0.0
 10
125.483013
 20
214.044956
 30
0.0
 10
125.635460
 20
214.318842
 30
0.0
 10
125.744498
 20
214.610812
 30
0.0
 10
125.799274
 20
214.918287
 30
0.0
 10
126.914451
 20
216.193661
 30
0.0
 10
128.031178
 20
217.467487
 30
0.0
 10
129.146357
 20
218.742860
 30
0.0
 10
130.256882
 20
220.021335
 30
0.0
 10
130.436200
 20
220.345346
 30
0.0
 10
130.616035
 20
220.669358
 30
0.0
 10
130.795351
 20
220.993369
 30
0.0
 10
130.974667
 20
221.317380
 30
0.0
 10
130.609315
 20
221.180437
 30
0.0
 10
130.242414
 20
221.046595
 30
0.0
 10
129.877062
 20
220.910171
 30
0.0
 10
129.516360
 20
220.763925
 30
0.0
 10
128.648712
 20
220.215640
 30
0.0
 10
127.773831
 20
219.677686
 30
0.0
 10
126.883963
 20
219.166090
 30
0.0
 10
125.970841
 20
218.697902
 30
0.0
 10
125.841131
 20
218.640025
 30
0.0
 10
125.705739
 20
218.596617
 30
0.0
 10
125.571897
 20
218.597146
 30
0.0
 10
125.447873
 20
218.670526
 30
0.0
 10
125.413250
 20
218.810054
 30
0.0
 10
125.451490
 20
218.953196
 30
0.0
 10
125.521771
 20
219.094791
 30
0.0
 10
125.582750
 20
219.229665
 30
0.0
 10
126.005461
 20
220.175344
 30
0.0
 10
126.387869
 20
221.139625
 30
0.0
 10
126.702578
 20
222.126646
 30
0.0
 10
126.922719
 20
223.138470
 30
0.0
 10
126.937192
 20
223.387552
 30
0.0
 10
126.943383
 20
223.637149
 30
0.0
 10
126.941266
 20
223.886228
 30
0.0
 10
126.933011
 20
224.135309
 30
0.0
 10
126.873067
 20
224.631919
 30
0.0
 10
126.813123
 20
225.128531
 30
0.0
 10
126.753695
 20
225.625141
 30
0.0
 10
126.693751
 20
226.121751
 30
0.0
 10
126.682903
 20
226.187381
 30
0.0
 10
126.672558
 20
226.253010
 30
0.0
 10
126.661710
 20
226.318638
 30
0.0
 10
126.650862
 20
226.383752
 30
0.0
 10
126.366641
 20
227.712868
 30
0.0
 10
126.014209
 20
229.027000
 30
0.0
 10
125.587362
 20
230.317878
 30
0.0
 10
125.078864
 20
231.578266
 30
0.0
 10
125.530516
 20
231.824762
 30
0.0
 10
125.981652
 20
232.071775
 30
0.0
 10
126.433303
 20
232.318271
 30
0.0
  0
LWPOLYLINE
  5
109
100
AcDbEntity
  8
cut
 62
7
100
AcDbPolyline
 90
64
 70
1
 10
94.395786
 20
229.987049
 30
0.0
 10
94.884646
 20
229.319904
 30
0.0
 10
95.369887
 20
228.650696
 30
0.0
 10
95.854095
 20
227.979935
 30
0.0
 10
96.337788
 20
227.309693
 30
0.0
 10
96.797192
 20
226.672005
 30
0.0
 10
97.256078
 20
226.031216
 30
0.0
 10
97.669489
 20
225.364590
 30
0.0
 10
97.991950
 20
224.647323
 30
0.0
 10
98.164032
 20
224.145027
 30
0.0
 10
98.349550
 20
223.645833
 30
0.0
 10
98.586231
 20
223.172993
 30
0.0
 10
98.910239
 20
222.751830
 30
0.0
 10
99.536042
 20
221.992703
 30
0.0
 10
100.135488
 20
221.217556
 30
0.0
 10
100.731835
 20
220.439310
 30
0.0
 10
101.347300
 20
219.670881
 30
0.0
 10
101.506463
 20
219.505000
 30
0.0
 10
101.668211
 20
219.342218
 30
0.0
 10
101.820656
 20
219.171686
 30
0.0
 10
101.953466
 20
218.983068
 30
0.0
 10
102.392198
 20
218.340212
 30
0.0
 10
102.834550
 20
217.698391
 30
0.0
 10
103.288268
 20
217.064838
 30
0.0
 10
103.760591
 20
216.446272
 30
0.0
 10
103.359581
 20
215.996170
 30
0.0
 10
102.958573
 20
215.546069
 30
0.0
 10
102.557563
 20
215.096484
 30
0.0
 10
102.156555
 20
214.646383
 30
0.0
 10
101.549355
 20
215.097000
 30
0.0
 10
100.932339
 20
215.534184
 30
0.0
 10
100.307570
 20
215.959997
 30
0.0
 10
99.678153
 20
216.379094
 30
0.0
 10
99.910179
 20
216.507766
 30
0.0
 10
100.141689
 20
216.637475
 30
0.0
 10
100.372168
 20
216.768217
 30
0.0
 10
100.603678
 20
216.897923
 30
0.0
 10
98.922127
 20
218.593429
 30
0.0
 10
97.241092
 20
220.289448
 30
0.0
 10
95.560059
 20
221.984953
 30
0.0
 10
93.878507
 20
223.680456
 30
0.0
 10
93.344689
 20
223.254641
 30
0.0
 10
92.792784
 20
222.852083
 30
0.0
 10
92.221761
 20
222.478978
 30
0.0
 10
91.628514
 20
222.140499
 30
0.0
 10
91.432662
 20
222.028877
 30
0.0
 10
91.236291
 20
221.917257
 30
0.0
 10
91.040436
 20
221.805635
 30
0.0
 10
90.844583
 20
221.694015
 30
0.0
 10
90.325751
 20
221.980302
 30
0.0
 10
89.802270
 20
222.258837
 30
0.0
 10
89.278787
 20
222.535824
 30
0.0
 10
88.758404
 20
222.818494
 30
0.0
 10
88.557385
 20
222.993677
 30
0.0
 10
88.370832
 20
223.181251
 30
0.0
 10
88.195649
 20
223.374005
 30
0.0
 10
88.028218
 20
223.563140
 30
0.0
 10
87.786889
 20
223.852012
 30
0.0
 10
87.548661
 20
224.143466
 30
0.0
 10
87.312499
 20
224.436987
 30
0.0
 10
87.078922
 20
224.732061
 30
0.0
 10
88.908267
 20
226.045675
 30
0.0
 10
90.737096
 20
227.359292
 30
0.0
 10
92.566441
 20
228.673421
 30
0.0
  0
LWPOLYLINE
  5
10a
100
AcDbEntity
  8
cut
 62
7
100
AcDbPolyline
 90
120
 70
1
 10
55.852922
 20
223.340424
 30
0.0
 10
56.337646
 20
222.350306
 30
0.0
 10
57.190824
 20
221.409276
 30
0.0
 10
57.953568
 20
220.513724
 30
0.0
 10
58.763338
 20
219.661581
 30
0.0
 10
59.450633
 20
219.017175
 30
0.0
 10
60.168937
 20
218.403776
 30
0.0
 10
60.917727
 20
217.827582
 30
0.0
 10
61.696491
 20
217.293248
 30
0.0
 10
62.138326
 20
217.048821
 30
0.0
 10
62.580675
 20
216.804906
 30
0.0
 10
63.022508
 20
216.560476
 30
0.0
 10
63.464860
 20
216.316046
 30
0.0
 10
63.827112
 20
216.154301
 30
0.0
 10
64.194015
 20
216.002888
 30
0.0
 10
64.565566
 20
215.862328
 30
0.0
 10
64.942288
 20
215.734172
 30
0.0
 10
65.051841
 20
215.701615
 30
0.0
 10
65.161397
 20
215.668542
 30
0.0
 10
65.271467
 20
215.637020
 30
0.0
 10
65.382055
 20
215.607564
 30
0.0
 10
65.154161
 20
215.227225
 30
0.0
 10
64.928852
 20
214.855155
 30
0.0
 10
64.696826
 20
214.486185
 30
0.0
 10
64.448261
 20
214.117732
 30
0.0
 10
64.028131
 20
213.569962
 30
0.0
 10
63.614720
 20
213.017542
 30
0.0
 10
63.205960
 20
212.461504
 30
0.0
 10
62.799785
 20
211.903397
 30
0.0
 10
62.495408
 20
211.848104
 30
0.0
 10
62.208605
 20
211.722531
 30
0.0
 10
61.982778
 20
211.519958
 30
0.0
 10
61.862890
 20
211.234705
 30
0.0
 10
61.841194
 20
211.103964
 30
0.0
 10
61.840136
 20
210.969087
 30
0.0
 10
61.843231
 20
210.836796
 30
0.0
 10
61.831854
 20
210.713288
 30
0.0
 10
61.513010
 20
210.414600
 30
0.0
 10
61.203469
 20
210.105056
 30
0.0
 10
60.907363
 20
209.783630
 30
0.0
 10
60.629344
 20
209.448249
 30
0.0
 10
60.219550
 20
209.184184
 30
0.0
 10
59.808723
 20
208.922702
 30
0.0
 10
59.389110
 20
208.675171
 30
0.0
 10
58.954511
 20
208.454511
 30
0.0
 10
57.990229
 20
207.943431
 30
0.0
 10
57.029564
 20
207.425634
 30
0.0
 10
56.070968
 20
206.903703
 30
0.0
 10
55.112885
 20
206.380220
 30
0.0
 10
54.673118
 20
206.140441
 30
0.0
 10
54.233352
 20
205.900663
 30
0.0
 10
53.794104
 20
205.660368
 30
0.0
 10
53.354337
 20
205.420590
 30
0.0
 10
53.450971
 20
205.230420
 30
0.0
 10
53.569311
 20
205.092961
 30
0.0
 10
53.689718
 20
205.000976
 30
0.0
 10
53.792035
 20
204.947231
 30
0.0
 10
55.603811
 20
204.933288
 30
0.0
 10
57.415588
 20
204.926567
 30
0.0
 10
59.227362
 20
204.922943
 30
0.0
 10
61.039139
 20
204.918815
 30
0.0
 10
61.039139
 20
204.390167
 30
0.0
 10
61.039139
 20
203.862032
 30
0.0
 10
61.039139
 20
203.333384
 30
0.0
 10
61.039139
 20
202.804734
 30
0.0
 10
59.480576
 20
202.811957
 30
0.0
 10
57.922532
 20
202.817645
 30
0.0
 10
56.364488
 20
202.822302
 30
0.0
 10
54.806444
 20
202.824948
 30
0.0
 10
53.955333
 20
202.787742
 30
0.0
 10
53.095437
 20
202.927267
 30
0.0
 10
52.308405
 20
203.265230
 30
0.0
 10
51.675887
 20
203.822818
 30
0.0
 10
51.444892
 20
204.054847
 30
0.0
 10
50.949833
 20
204.605718
 30
0.0
 10
50.488878
 20
205.260458
 30
0.0
 10
50.358137
 20
205.801510
 30
0.0
 10
50.649076
 20
206.242827
 30
0.0
 10
51.122431
 20
206.497592
 30
0.0
 10
51.717744
 20
206.698612
 30
0.0
 10
52.374035
 20
206.980250
 30
0.0
 10
52.813285
 20
207.220545
 30
0.0
 10
53.253049
 20
207.461358
 30
0.0
 10
53.692816
 20
207.701652
 30
0.0
 10
54.132067
 20
207.942466
 30
0.0
 10
54.913931
 20
208.367762
 30
0.0
 10
55.696828
 20
208.790992
 30
0.0
 10
56.481794
 20
209.211121
 30
0.0
 10
57.268310
 20
209.627115
 30
0.0
 10
57.505504
 20
209.745455
 30
0.0
 10
57.741666
 20
209.867928
 30
0.0
 10
57.970075
 20
209.992468
 30
0.0
 10
58.184533
 20
210.116491
 30
0.0
 10
58.598977
 20
210.380559
 30
0.0
 10
58.996886
 20
210.670981
 30
0.0
 10
59.367406
 20
210.993442
 30
0.0
 10
59.700202
 20
211.353109
 30
0.0
 10
59.916210
 20
211.969609
 30
0.0
 10
60.256758
 20
212.530814
 30
0.0
 10
60.716678
 20
212.990218
 30
0.0
 10
61.290287
 20
213.302860
 30
0.0
 10
61.588459
 20
213.662530
 30
0.0
 10
61.853042
 20
214.010311
 30
0.0
 10
62.066981
 20
214.320371
 30
0.0
 10
62.212711
 20
214.567383
 30
0.0
 10
61.802398
 20
214.875893
 30
0.0
 10
61.392088
 20
215.184400
 30
0.0
 10
60.982296
 20
215.492909
 30
0.0
 10
60.571982
 20
215.801416
 30
0.0
 10
59.585481
 20
216.460292
 30
0.0
 10
58.641868
 20
217.181178
 30
0.0
 10
57.740115
 20
217.954772
 30
0.0
 10
56.881254
 20
218.773327
 30
0.0
 10
56.075100
 20
219.614104
 30
0.0
 10
55.334061
 20
220.508105
 30
0.0
 10
54.656066
 20
221.450683
 30
0.0
 10
54.040082
 20
222.435121
 30
0.0
 10
54.493284
 20
222.661464
 30
0.0
 10
54.946488
 20
222.887804
 30
0.0
 10
55.399691
 20
223.114147
 30
0.0
  0
LWPOLYLINE
  5
10b
100
AcDbEntity
  8
cut
 62
7
100
AcDbPolyline
 90
32
 70
1
 10
79.429260
 20
218.366051
 30
0.0
 10
79.838020
 20
218.323676
 30
0.0
 10
80.231278
 20
218.206373
 30
0.0
 10
80.608516
 20
218.034806
 30
0.0
 10
80.967666
 20
217.834302
 30
0.0
 10
81.323200
 20
217.601241
 30
0.0
 10
81.670466
 20
217.355777
 30
0.0
 10
82.014630
 20
217.105664
 30
0.0
 10
82.360864
 20
216.858651
 30
0.0
 10
81.663748
 20
216.500532
 30
0.0
 10
80.960949
 20
216.153783
 30
0.0
 10
80.247298
 20
215.829771
 30
0.0
 10
79.518660
 20
215.541418
 30
0.0
 10
79.213251
 20
215.421011
 30
0.0
 10
78.907845
 20
215.300089
 30
0.0
 10
78.601918
 20
215.179682
 30
0.0
 10
78.295996
 20
215.061345
 30
0.0
 10
78.313565
 20
215.375019
 30
0.0
 10
78.302717
 20
215.691281
 30
0.0
 10
78.267059
 20
216.006505
 30
0.0
 10
78.210216
 20
216.318631
 30
0.0
 10
78.148719
 20
216.643677
 30
0.0
 10
78.090325
 20
216.968721
 30
0.0
 10
78.050019
 20
217.295833
 30
0.0
 10
78.041234
 20
217.626562
 30
0.0
 10
78.036075
 20
217.775906
 30
0.0
 10
78.030916
 20
217.925253
 30
0.0
 10
78.025756
 20
218.074597
 30
0.0
 10
78.020597
 20
218.223941
 30
0.0
 10
78.370445
 20
218.279236
 30
0.0
 10
78.722362
 20
218.322128
 30
0.0
 10
79.075313
 20
218.353132
 30
0.0
  0
LWPOLYLINE
  5
10c
100
AcDbEntity
  8
cut
 62
7
100
AcDbPolyline
 90
60
 70
1
 10
76.247542
 20
217.617259
 30
0.0
 10
76.281131
 20
217.584186
 30
0.0
 10
76.288883
 20
217.511841
 30
0.0
 10
76.285258
 20
217.421923
 30
0.0
 10
76.283671
 20
217.336140
 30
0.0
 10
76.283671
 20
217.335610
 30
0.0
 10
76.283671
 20
217.335081
 30
0.0
 10
76.283671
 20
217.334552
 30
0.0
 10
76.283671
 20
217.334023
 30
0.0
 10
76.219075
 20
217.195529
 30
0.0
 10
76.164815
 20
217.052903
 30
0.0
 10
76.121923
 20
216.906141
 30
0.0
 10
76.090917
 20
216.757313
 30
0.0
 10
75.838737
 20
216.520635
 30
0.0
 10
75.662519
 20
216.227631
 30
0.0
 10
75.559684
 20
215.898452
 30
0.0
 10
75.527127
 20
215.554803
 30
0.0
 10
75.524031
 20
215.436982
 30
0.0
 10
75.523502
 20
215.320710
 30
0.0
 10
75.496631
 20
215.215290
 30
0.0
 10
75.414980
 20
215.131057
 30
0.0
 10
75.231529
 20
214.908849
 30
0.0
 10
75.089418
 20
214.658733
 30
0.0
 10
74.998987
 20
214.387432
 30
0.0
 10
74.970046
 20
214.100629
 30
0.0
 10
74.867727
 20
213.993142
 30
0.0
 10
74.780912
 20
213.872220
 30
0.0
 10
74.701330
 20
213.747162
 30
0.0
 10
74.622781
 20
213.628822
 30
0.0
 10
72.728840
 20
212.898635
 30
0.0
 10
70.829214
 20
212.182916
 30
0.0
 10
68.921838
 20
211.488901
 30
0.0
 10
67.003609
 20
210.825376
 30
0.0
 10
66.684765
 20
210.722025
 30
0.0
 10
66.365921
 20
210.620737
 30
0.0
 10
66.045010
 20
210.523068
 30
0.0
 10
65.723065
 20
210.431602
 30
0.0
 10
65.524628
 20
210.664147
 30
0.0
 10
65.322574
 20
210.894107
 30
0.0
 10
65.122070
 20
211.125617
 30
0.0
 10
64.927765
 20
211.361776
 30
0.0
 10
65.322058
 20
212.063544
 30
0.0
 10
65.733919
 20
212.756009
 30
0.0
 10
66.162316
 20
213.437621
 30
0.0
 10
66.608284
 20
214.108379
 30
0.0
 10
66.824809
 20
214.368830
 30
0.0
 10
67.051668
 20
214.621528
 30
0.0
 10
67.281628
 20
214.871125
 30
0.0
 10
67.507452
 20
215.123823
 30
0.0
 10
68.984367
 20
215.275234
 30
0.0
 10
70.441126
 20
215.558420
 30
0.0
 10
71.877213
 20
215.941859
 30
0.0
 10
73.291080
 20
216.394546
 30
0.0
 10
74.015583
 20
216.653962
 30
0.0
 10
74.731302
 20
216.937664
 30
0.0
 10
75.438235
 20
217.241522
 30
0.0
 10
76.137933
 20
217.562432
 30
0.0
 10
76.173591
 20
217.588785
 30
0.0
 10
76.203563
 20
217.606353
 30
0.0
 10
76.227852
 20
217.615640
 30
0.0
  0
LWPOLYLINE
  5
10d
100
AcDbEntity
  8
cut
 62
7
100
AcDbPolyline
 90
116
 70
1
 10
105.201846
 20
215.057209
 30
0.0
 10
105.732563
 20
214.753870
 30
0.0
 10
106.263796
 20
214.248473
 30
0.0
 10
106.794513
 20
213.843846
 30
0.0
 10
107.325746
 20
213.439221
 30
0.0
 10
107.607384
 20
212.899201
 30
0.0
 10
107.876619
 20
212.353498
 30
0.0
 10
108.141718
 20
211.805213
 30
0.0
 10
108.409919
 20
211.258991
 30
0.0
 10
108.937019
 20
210.487464
 30
0.0
 10
109.528196
 20
209.763992
 30
0.0
 10
110.164850
 20
209.078248
 30
0.0
 10
110.828377
 20
208.419888
 30
0.0
 10
111.642796
 20
207.695903
 30
0.0
 10
112.505277
 20
207.027727
 30
0.0
 10
113.427183
 20
206.449467
 30
0.0
 10
114.417820
 20
205.994714
 30
0.0
 10
115.043623
 20
205.773538
 30
0.0
 10
115.681309
 20
205.589055
 30
0.0
 10
116.328816
 20
205.440227
 30
0.0
 10
116.983038
 20
205.326020
 30
0.0
 10
116.983038
 20
204.790135
 30
0.0
 10
116.983038
 20
204.254769
 30
0.0
 10
116.983038
 20
203.718885
 30
0.0
 10
116.983038
 20
203.183000
 30
0.0
 10
115.701465
 20
203.404692
 30
0.0
 10
114.448827
 20
203.747822
 30
0.0
 10
113.237532
 20
204.213428
 30
0.0
 10
112.081012
 20
204.800472
 30
0.0
 10
110.214459
 20
206.148194
 30
0.0
 10
108.516371
 20
207.715540
 30
0.0
 10
107.064782
 20
209.503026
 30
0.0
 10
105.939269
 20
211.511689
 30
0.0
 10
105.446276
 20
211.048153
 30
0.0
 10
104.827709
 20
210.728274
 30
0.0
 10
104.141446
 20
210.575829
 30
0.0
 10
103.445364
 20
210.615104
 30
0.0
 10
103.058308
 20
209.992920
 30
0.0
 10
102.600970
 20
209.365051
 30
0.0
 10
102.069737
 20
208.786791
 30
0.0
 10
101.460989
 20
208.312919
 30
0.0
 10
101.104939
 20
208.138252
 30
0.0
 10
100.891516
 20
207.836979
 30
0.0
 10
100.737002
 20
207.474727
 30
0.0
 10
100.556651
 20
207.117127
 30
0.0
 10
100.246594
 20
206.723869
 30
0.0
 10
99.995962
 20
206.297022
 30
0.0
 10
99.753599
 20
205.863457
 30
0.0
 10
99.468862
 20
205.451077
 30
0.0
 10
98.887504
 20
204.992708
 30
0.0
 10
98.281338
 20
204.551391
 30
0.0
 10
97.631249
 20
204.191724
 30
0.0
 10
96.918115
 20
203.976750
 30
0.0
 10
96.732078
 20
203.789679
 30
0.0
 10
96.528473
 20
203.612948
 30
0.0
 10
96.310399
 20
203.448616
 30
0.0
 10
96.079923
 20
203.300822
 30
0.0
 10
96.079923
 20
203.975200
 30
0.0
 10
96.079923
 20
204.649575
 30
0.0
 10
96.079923
 20
205.323437
 30
0.0
 10
96.079923
 20
205.997815
 30
0.0
 10
96.309883
 20
206.039156
 30
0.0
 10
96.540358
 20
206.079979
 30
0.0
 10
96.770318
 20
206.120804
 30
0.0
 10
97.000797
 20
206.161629
 30
0.0
 10
97.062807
 20
206.336294
 30
0.0
 10
97.124820
 20
206.510961
 30
0.0
 10
97.186831
 20
206.685629
 30
0.0
 10
97.248844
 20
206.860293
 30
0.0
 10
97.424027
 20
206.860293
 30
0.0
 10
97.599210
 20
206.860293
 30
0.0
 10
97.774394
 20
206.860293
 30
0.0
 10
97.949574
 20
206.860293
 30
0.0
 10
98.004354
 20
207.106790
 30
0.0
 10
98.059130
 20
207.353805
 30
0.0
 10
98.113907
 20
207.600301
 30
0.0
 10
98.168684
 20
207.846798
 30
0.0
 10
98.479775
 20
207.964619
 30
0.0
 10
98.727306
 20
208.181144
 30
0.0
 10
98.891636
 20
208.467431
 30
0.0
 10
98.954165
 20
208.794532
 30
0.0
 10
98.964511
 20
208.988837
 30
0.0
 10
98.958822
 20
209.184690
 30
0.0
 10
98.946413
 20
209.378992
 30
0.0
 10
98.938661
 20
209.568129
 30
0.0
 10
99.070434
 20
209.673550
 30
0.0
 10
99.191356
 20
209.793954
 30
0.0
 10
99.301944
 20
209.921078
 30
0.0
 10
99.404780
 20
210.048718
 30
0.0
 10
99.667815
 20
210.085411
 30
0.0
 10
99.932915
 20
210.099354
 30
0.0
 10
100.199049
 20
210.099883
 30
0.0
 10
100.464664
 20
210.098296
 30
0.0
 10
100.650184
 20
210.370116
 30
0.0
 10
100.845521
 20
210.635215
 30
0.0
 10
101.059460
 20
210.884296
 30
0.0
 10
101.301824
 20
211.105472
 30
0.0
 10
101.459436
 20
211.422247
 30
0.0
 10
101.496126
 20
211.771579
 30
0.0
 10
101.455819
 20
212.131248
 30
0.0
 10
101.383988
 20
212.478514
 30
0.0
 10
101.363324
 20
212.575666
 30
0.0
 10
101.326634
 20
212.683153
 30
0.0
 10
101.329280
 20
212.759634
 30
0.0
 10
101.426948
 20
212.765322
 30
0.0
 10
102.126647
 20
212.764264
 30
0.0
 10
102.826864
 20
212.749791
 30
0.0
 10
103.526046
 20
212.727566
 30
0.0
 10
104.225745
 20
212.703807
 30
0.0
 10
104.078983
 20
212.853669
 30
0.0
 10
103.932740
 20
213.004048
 30
0.0
 10
103.786494
 20
213.154942
 30
0.0
 10
103.640767
 20
213.305837
 30
0.0
 10
104.030924
 20
213.743537
 30
0.0
 10
104.421081
 20
214.181237
 30
0.0
 10
104.811755
 20
214.619451
 30
0.0
  0
LWPOLYLINE
  5
10e
100
AcDbEntity
  8
cut
 62
7
100
AcDbPolyline
 90
48
 70
1
 10
88.708279
 20
210.979422
 30
0.0
 10
90.052900
 20
209.708700
 30
0.0
 10
91.395970
 20
208.436424
 30
0.0
 10
92.738008
 20
207.163635
 30
0.0
 10
94.080043
 20
205.889810
 30
0.0
 10
94.080043
 20
205.213365
 30
0.0
 10
94.080043
 20
204.536405
 30
0.0
 10
94.080043
 20
203.859961
 30
0.0
 10
94.080043
 20
203.183000
 30
0.0
 10
92.557141
 20
204.429434
 30
0.0
 10
91.110717
 20
205.768371
 30
0.0
 10
89.693233
 20
207.142964
 30
0.0
 10
88.259728
 20
208.495852
 30
0.0
 10
86.437617
 20
207.719673
 30
0.0
 10
84.614471
 20
206.946076
 30
0.0
 10
82.787711
 20
206.181783
 30
0.0
 10
80.954231
 20
205.432991
 30
0.0
 10
79.461298
 20
204.846462
 30
0.0
 10
78.013842
 20
204.154516
 30
0.0
 10
76.572585
 20
203.449650
 30
0.0
 10
75.098258
 20
202.824366
 30
0.0
 10
72.084487
 20
202.794394
 30
0.0
 10
69.070201
 20
202.783546
 30
0.0
 10
66.054882
 20
202.785662
 30
0.0
 10
63.039563
 20
202.796510
 30
0.0
 10
63.039563
 20
203.325677
 30
0.0
 10
63.039563
 20
203.855360
 30
0.0
 10
63.039563
 20
204.384526
 30
0.0
 10
63.039563
 20
204.914209
 30
0.0
 10
65.972716
 20
204.907488
 30
0.0
 10
68.906386
 20
204.900768
 30
0.0
 10
71.839541
 20
204.894048
 30
0.0
 10
74.772696
 20
204.886824
 30
0.0
 10
75.579366
 20
205.314187
 30
0.0
 10
76.389652
 20
205.733285
 30
0.0
 10
77.207173
 20
206.137909
 30
0.0
 10
78.034511
 20
206.522383
 30
0.0
 10
78.872703
 20
206.879984
 30
0.0
 10
79.718648
 20
207.217949
 30
0.0
 10
80.566659
 20
207.551777
 30
0.0
 10
81.410534
 20
207.896460
 30
0.0
 10
82.848690
 20
208.489187
 30
0.0
 10
84.282710
 20
209.092252
 30
0.0
 10
85.712079
 20
209.705136
 30
0.0
 10
87.137316
 20
210.328354
 30
0.0
 10
87.529539
 20
210.492168
 30
0.0
 10
87.922281
 20
210.654947
 30
0.0
 10
88.315021
 20
210.817211
 30
0.0
  0
ENDSEC
  0
SECTION
  2
OBJECTS
  0
DICTIONARY
  5
C
330
0
100
AcDbDictionary
  3
ACAD_GROUP
350
D
  3
ACAD_MLINESTYLE
350
17
  0
DICTIONARY
  5
D
330
C
100
AcDbDictionary
  0
DICTIONARY
  5
1A
330
C
100
AcDbDictionary
  0
DICTIONARY
  5
17
330
C
100
AcDbDictionary
  3
STANDARD
350
18
  0
DICTIONARY
  5
19
330
C
100
AcDbDictionary
  0
ENDSEC
  0
EOF
