  0
SECTION
  2
HEADER
  9
$ACADVER
  1
AC1014
  9
$HANDSEED
  5
FFFF
  9
$MEASUREMENT
 70
     1
  0
ENDSEC
  0
SECTION
  2
TABLES
  0
TABLE
  2
VPORT
  5
8
330
0
100
AcDbSymbolTable
 70
     4
  0
VPORT
  5
2E
330
8
100
AcDbSymbolTableRecord
100
AcDbViewportTableRecord
  2
*ACTIVE
 70
     0
 10
0.0
 20
0.0
 11
1.0
 21
1.0
 12
210.0
 22
148.5
 13
0.0
 23
0.0
 14
10.0
 24
10.0
 15
10.0
 25
10.0
 16
0.0
 26
0.0
 36
1.0
 17
0.0
 27
0.0
 37
0.0
 40
341.0
 41
1.24
 42
50.0
 43
0.0
 44
0.0
 50
0.0
 51
0.0
 71
     0
 72
   100
 73
     1
 74
     3
 75
     0
 76
     0
 77
     0
 78
     0
  0
ENDTAB
  0
TABLE
  2
LTYPE
  5
5
330
0
100
AcDbSymbolTable
 70
     1
  0
LTYPE
  5
14
330
5
100
AcDbSymbolTableRecord
100
AcDbLinetypeTableRecord
  2
BYBLOCK
 70
     0
  3

 72
    65
 73
     0
 40
0.0
  0
LTYPE
  5
15
330
5
100
AcDbSymbolTableRecord
100
AcDbLinetypeTableRecord
  2
BYLAYER
 70
     0
  3

 72
    65
 73
     0
 40
0.0
  0
LTYPE
  5
16
330
5
100
AcDbSymbolTableRecord
100
AcDbLinetypeTableRecord
  2
CONTINUOUS
 70
     0
  3
Solid line
 72
    65
 73
     0
 40
0.0
  0
ENDTAB
  0
TABLE
  2
LAYER
  5
2
100
AcDbSymbolTable
 70
2
  0
LAYER
  5
50
100
AcDbSymbolTableRecord
100
AcDbLayerTableRecord
  2
0
 70
0
  6
CONTINUOUS
  0
LAYER
  5
51
100
AcDbSymbolTableRecord
100
AcDbLayerTableRecord
  2
cut
 70
0
  6
CONTINUOUS
  0
ENDTAB
  0
TABLE
  2
STYLE
  5
3
330
0
100
AcDbSymbolTable
 70
     1
  0
STYLE
  5
11
330
3
100
AcDbSymbolTableRecord
100
AcDbTextStyleTableRecord
  2
STANDARD
 70
     0
 40
0.0
 41
1.0
 50
0.0
 71
     0
 42
2.5
  3
txt
  4

  0
ENDTAB
  0
TABLE
  2
VIEW
  5
6
330
0
100
AcDbSymbolTable
 70
     0
  0
ENDTAB
  0
TABLE
  2
UCS
  5
7
330
0
100
AcDbSymbolTable
 70
     0
  0
ENDTAB
  0
TABLE
  2
APPID
  5
9
330
0
100
AcDbSymbolTable
 70
     2
  0
APPID
  5
12
330
9
100
AcDbSymbolTableRecord
100
AcDbRegAppTableRecord
  2
ACAD
 70
     0
  0
ENDTAB
  0
TABLE
  2
DIMSTYLE
  5
A
330
0
100
AcDbSymbolTable
 70
     1
  0
DIMSTYLE
105
27
330
A
100
AcDbSymbolTableRecord
100
AcDbDimStyleTableRecord
  2
ISO-25
 70
     0
  3

  4

  5

  6

  7

 40
1.0
 41
2.5
 42
0.625
 43
3.75
 44
1.25
 45
0.0
 46
0.0
 47
0.0
 48
0.0
140
2.5
141
2.5
142
0.0
143
0.03937007874016
144
1.0
145
0.0
146
1.0
147
0.625
 71
     0
 72
     0
 73
     0
 74
     0
 75
     0
 76
     0
 77
     1
 78
     8
170
     0
171
     3
172
     1
173
     0
174
     0
175
     0
176
     0
177
     0
178
     0
270
     2
271
     2
272
     2
273
     2
274
     3
340
11
275
     0
280
     0
281
     0
282
     0
283
     0
284
     8
285
     0
286
     0
287
     3
288
     0
  0
ENDTAB
  0
TABLE
  2
BLOCK_RECORD
  5
1
330
0
100
AcDbSymbolTable
 70
     1
  0
BLOCK_RECORD
  5
1F
330
1
100
AcDbSymbolTableRecord
100
AcDbBlockTableRecord
  2
*MODEL_SPACE
  0
BLOCK_RECORD
  5
1B
330
1
100
AcDbSymbolTableRecord
100
AcDbBlockTableRecord
  2
*PAPER_SPACE
  0
ENDTAB
  0
ENDSEC
  0
SECTION
  2
BLOCKS
  0
BLOCK
  5
20
330
1F
100
AcDbEntity
  8
0
100
AcDbBlockBegin
  2
*MODEL_SPACE
 70
     0
 10
0.0
 20
0.0
 30
0.0
  3
*MODEL_SPACE
  1

  0
ENDBLK
  5
21
330
1F
100
AcDbEntity
  8
0
100
AcDbBlockEnd
  0
BLOCK
  5
1C
330
1B
100
AcDbEntity
 67
     1
  8
0
100
AcDbBlockBegin
  2
*PAPER_SPACE
  1

  0
ENDBLK
  5
1D
330
1B
100
AcDbEntity
 67
     1
  8
0
100
AcDbBlockEnd
  0
ENDSEC
  0
SECTION
  2
ENTITIES
  0
LWPOLYLINE
  5
100
100
AcDbEntity
  8
cut
 62
7
100
AcDbPolyline
 90
424
 70
1
 10
74.772700
 20
204.886978
 30
0.0
 10
75.579166
 20
205.314593
 30
0.0
 10
76.389561
 20
205.733616
 30
0.0
 10
77.206980
 20
206.138209
 30
0.0
 10
78.034518
 20
206.522537
 30
0.0
 10
78.872599
 20
206.880259
 30
0.0
 10
79.718829
 20
207.218190
 30
0.0
 10
80.566911
 20
207.551814
 30
0.0
 10
81.410538
 20
207.896614
 30
0.0
 10
82.848699
 20
208.489204
 30
0.0
 10
84.282627
 20
209.092226
 30
0.0
 10
85.712207
 20
209.705414
 30
0.0
 10
87.137319
 20
210.328505
 30
0.0
 10
87.529644
 20
210.492314
 30
0.0
 10
87.922314
 20
210.655242
 30
0.0
 10
88.315228
 20
210.817582
 30
0.0
 10
88.708283
 20
210.979629
 30
0.0
 10
90.278246
 20
209.495668
 30
0.0
 10
91.846620
 20
208.010136
 30
0.0
 10
93.413948
 20
206.523524
 30
0.0
 10
94.980770
 20
205.036322
 30
0.0
 10
95.178515
 20
205.263094
 30
0.0
 10
95.376296
 20
205.489834
 30
0.0
 10
95.574104
 20
205.716550
 30
0.0
 10
95.771936
 20
205.943245
 30
0.0
 10
96.079141
 20
205.997950
 30
0.0
 10
96.386340
 20
206.052693
 30
0.0
 10
96.693553
 20
206.107358
 30
0.0
 10
97.000801
 20
206.161836
 30
0.0
 10
97.062756
 20
206.336522
 30
0.0
 10
97.124761
 20
206.511189
 30
0.0
 10
97.186798
 20
206.685849
 30
0.0
 10
97.248848
 20
206.860500
 30
0.0
 10
97.424031
 20
206.860500
 30
0.0
 10
97.599214
 20
206.860500
 30
0.0
 10
97.774397
 20
206.860500
 30
0.0
 10
97.949581
 20
206.860500
 30
0.0
 10
98.004315
 20
207.107137
 30
0.0
 10
98.059086
 20
207.353763
 30
0.0
 10
98.113879
 20
207.600386
 30
0.0
 10
98.168687
 20
207.847004
 30
0.0
 10
98.479687
 20
207.964887
 30
0.0
 10
98.727178
 20
208.181464
 30
0.0
 10
98.891794
 20
208.467746
 30
0.0
 10
98.954169
 20
208.794750
 30
0.0
 10
98.964779
 20
208.988877
 30
0.0
 10
98.958799
 20
209.184682
 30
0.0
 10
98.946629
 20
209.378921
 30
0.0
 10
98.938665
 20
209.568346
 30
0.0
 10
99.070633
 20
209.673923
 30
0.0
 10
99.191154
 20
209.793972
 30
0.0
 10
99.301961
 20
209.921356
 30
0.0
 10
99.404786
 20
210.048936
 30
0.0
 10
99.667867
 20
210.085628
 30
0.0
 10
99.933024
 20
210.099254
 30
0.0
 10
100.199034
 20
210.100048
 30
0.0
 10
100.464670
 20
210.098460
 30
0.0
 10
100.650384
 20
210.370031
 30
0.0
 10
100.845456
 20
210.635596
 30
0.0
 10
101.059424
 20
210.884389
 30
0.0
 10
101.301828
 20
211.105634
 30
0.0
 10
101.459506
 20
211.422216
 30
0.0
 10
101.496034
 20
211.771654
 30
0.0
 10
101.456003
 20
212.131344
 30
0.0
 10
101.383994
 20
212.478678
 30
0.0
 10
101.363330
 20
212.575870
 30
0.0
 10
101.326479
 20
212.683056
 30
0.0
 10
101.329125
 20
212.759756
 30
0.0
 10
101.426904
 20
212.765471
 30
0.0
 10
102.126846
 20
212.764677
 30
0.0
 10
102.826563
 20
212.749940
 30
0.0
 10
103.526153
 20
212.727582
 30
0.0
 10
104.225698
 20
212.703955
 30
0.0
 10
104.078982
 20
212.853783
 30
0.0
 10
103.932633
 20
213.004154
 30
0.0
 10
103.786575
 20
213.154935
 30
0.0
 10
103.640720
 20
213.305985
 30
0.0
 10
104.031007
 20
213.743813
 30
0.0
 10
104.421294
 20
214.181643
 30
0.0
 10
104.811581
 20
214.619472
 30
0.0
 10
105.201868
 20
215.057300
 30
0.0
 10
105.732847
 20
214.652807
 30
0.0
 10
106.263818
 20
214.248304
 30
0.0
 10
106.794789
 20
213.843804
 30
0.0
 10
107.325768
 20
213.439312
 30
0.0
 10
107.607266
 20
212.899437
 30
0.0
 10
107.876760
 20
212.353509
 30
0.0
 10
108.141804
 20
211.805425
 30
0.0
 10
108.409941
 20
211.259082
 30
0.0
 10
108.936808
 20
210.487443
 30
0.0
 10
109.528104
 20
209.763884
 30
0.0
 10
110.164933
 20
209.078148
 30
0.0
 10
110.828396
 20
208.419978
 30
0.0
 10
111.642763
 20
207.695898
 30
0.0
 10
112.505476
 20
207.027748
 30
0.0
 10
113.427012
 20
206.449422
 30
0.0
 10
114.417842
 20
205.994805
 30
0.0
 10
115.537464
 20
205.625825
 30
0.0
 10
116.688367
 20
205.369375
 30
0.0
 10
117.858847
 20
205.224621
 30
0.0
 10
119.037197
 20
205.190720
 30
0.0
 10
120.122230
 20
205.269307
 30
0.0
 10
121.195343
 20
205.459777
 30
0.0
 10
122.230795
 20
205.787152
 30
0.0
 10
123.202834
 20
206.276440
 30
0.0
 10
124.288253
 20
207.034501
 30
0.0
 10
125.279065
 20
207.911806
 30
0.0
 10
126.182866
 20
208.881710
 30
0.0
 10
127.007254
 20
209.917562
 30
0.0
 10
127.723188
 20
209.915975
 30
0.0
 10
128.439997
 20
209.922986
 30
0.0
 10
129.154861
 20
209.960126
 30
0.0
 10
129.864961
 20
210.048877
 30
0.0
 10
130.200053
 20
210.154002
 30
0.0
 10
130.496638
 20
210.335971
 30
0.0
 10
130.750881
 20
210.577097
 30
0.0
 10
130.958949
 20
210.859682
 30
0.0
 10
131.052760
 20
210.988108
 30
0.0
 10
131.146534
 20
211.116513
 30
0.0
 10
131.240310
 20
211.244916
 30
0.0
 10
131.334121
 20
211.373344
 30
0.0
 10
129.999131
 20
211.611112
 30
0.0
 10
128.663641
 20
211.846623
 30
0.0
 10
127.328591
 20
212.084111
 30
0.0
 10
125.994914
 20
212.327808
 30
0.0
 10
125.779461
 20
212.426643
 30
0.0
 10
125.621788
 20
212.597871
 30
0.0
 10
125.529369
 20
212.814805
 30
0.0
 10
125.509657
 20
213.050763
 30
0.0
 10
125.449531
 20
213.234458
 30
0.0
 10
125.385015
 20
213.418719
 30
0.0
 10
125.330370
 20
213.604261
 30
0.0
 10
125.299851
 20
213.791803
 30
0.0
 10
125.482781
 20
214.044998
 30
0.0
 10
125.634908
 20
214.318930
 30
0.0
 10
125.744306
 20
214.610934
 30
0.0
 10
125.799045
 20
214.918348
 30
0.0
 10
126.914084
 20
216.193645
 30
0.0
 10
128.030729
 20
217.467852
 30
0.0
 10
129.145932
 20
218.743067
 30
0.0
 10
130.256655
 20
220.021396
 30
0.0
 10
130.436111
 20
220.345418
 30
0.0
 10
130.615547
 20
220.669419
 30
0.0
 10
130.794984
 20
220.993420
 30
0.0
 10
130.974441
 20
221.317442
 30
0.0
 10
130.609160
 20
221.180454
 30
0.0
 10
130.242140
 20
221.047027
 30
0.0
 10
129.876695
 20
220.910444
 30
0.0
 10
129.516131
 20
220.763986
 30
0.0
 10
128.648269
 20
220.215979
 30
0.0
 10
127.773506
 20
219.677983
 30
0.0
 10
126.883675
 20
219.166482
 30
0.0
 10
125.970612
 20
218.697964
 30
0.0
 10
125.840775
 20
218.640115
 30
0.0
 10
125.705192
 20
218.596795
 30
0.0
 10
125.571578
 20
218.597324
 30
0.0
 10
125.447647
 20
218.670688
 30
0.0
 10
125.412796
 20
218.810099
 30
0.0
 10
125.451094
 20
218.953390
 30
0.0
 10
125.521386
 20
219.095114
 30
0.0
 10
125.582521
 20
219.229826
 30
0.0
 10
126.005367
 20
220.175550
 30
0.0
 10
126.387619
 20
221.140004
 30
0.0
 10
126.702317
 20
222.126569
 30
0.0
 10
126.922492
 20
223.138632
 30
0.0
 10
126.937045
 20
223.387954
 30
0.0
 10
126.942945
 20
223.637210
 30
0.0
 10
126.941093
 20
223.886387
 30
0.0
 10
126.932732
 20
224.135471
 30
0.0
 10
127.463579
 20
224.213632
 30
0.0
 10
127.994423
 20
224.291792
 30
0.0
 10
128.525269
 20
224.369953
 30
0.0
 10
129.056116
 20
224.448113
 30
0.0
 10
129.053444
 20
223.941053
 30
0.0
 10
129.010544
 20
223.431447
 30
0.0
 10
128.927902
 20
222.900491
 30
0.0
 10
128.806006
 20
222.329380
 30
0.0
 10
128.808387
 20
222.330703
 30
0.0
 10
128.810768
 20
222.332026
 30
0.0
 10
128.813149
 20
222.333349
 30
0.0
 10
128.815531
 20
222.334672
 30
0.0
 10
129.444064
 20
222.648997
 30
0.0
 10
130.086324
 20
222.933929
 30
0.0
 10
130.738496
 20
223.196089
 30
0.0
 10
131.396769
 20
223.442096
 30
0.0
 10
131.390286
 20
230.422072
 30
0.0
 10
131.395340
 20
237.390617
 30
0.0
 10
131.397192
 20
244.359155
 30
0.0
 10
131.381238
 20
251.339101
 30
0.0
 10
131.155474
 20
251.275080
 30
0.0
 10
130.918500
 20
251.140113
 30
0.0
 10
130.682544
 20
251.001162
 30
0.0
 10
130.459847
 20
250.925174
 30
0.0
 10
129.792838
 20
250.559660
 30
0.0
 10
129.126196
 20
250.193410
 30
0.0
 10
128.459753
 20
249.826785
 30
0.0
 10
127.793342
 20
249.460147
 30
0.0
 10
127.548266
 20
249.850045
 30
0.0
 10
127.303191
 20
250.239942
 30
0.0
 10
127.058115
 20
250.629843
 30
0.0
 10
126.813040
 20
251.019741
 30
0.0
 10
126.716334
 20
251.209796
 30
0.0
 10
126.597918
 20
251.347285
 30
0.0
 10
126.477635
 20
251.439341
 30
0.0
 10
126.375342
 20
251.493099
 30
0.0
 10
124.351999
 20
251.508154
 30
0.0
 10
122.328622
 20
251.514133
 30
0.0
 10
120.305213
 20
251.517229
 30
0.0
 10
118.281778
 20
251.523606
 30
0.0
 10
115.060029
 20
251.531093
 30
0.0
 10
111.838242
 20
251.538475
 30
0.0
 10
108.616459
 20
251.545910
 30
0.0
 10
105.394710
 20
251.553583
 30
0.0
 10
104.588244
 20
251.125969
 30
0.0
 10
103.777851
 20
250.706945
 30
0.0
 10
102.960432
 20
250.302352
 30
0.0
 10
102.132894
 20
249.918024
 30
0.0
 10
101.294814
 20
249.560302
 30
0.0
 10
100.448581
 20
249.222371
 30
0.0
 10
99.600499
 20
248.888747
 30
0.0
 10
98.756872
 20
248.543947
 30
0.0
 10
97.318711
 20
247.951355
 30
0.0
 10
95.884783
 20
247.348332
 30
0.0
 10
94.455205
 20
246.735145
 30
0.0
 10
93.030090
 20
246.112054
 30
0.0
 10
92.637766
 20
245.948245
 30
0.0
 10
92.245098
 20
245.785317
 30
0.0
 10
91.852184
 20
245.622979
 30
0.0
 10
91.459127
 20
245.460932
 30
0.0
 10
89.889163
 20
246.944893
 30
0.0
 10
88.320790
 20
248.430425
 30
0.0
 10
86.753465
 20
249.917037
 30
0.0
 10
85.186642
 20
251.404239
 30
0.0
 10
84.988897
 20
251.177467
 30
0.0
 10
84.791116
 20
250.950727
 30
0.0
 10
84.593306
 20
250.724011
 30
0.0
 10
84.395474
 20
250.497316
 30
0.0
 10
84.088269
 20
250.442611
 30
0.0
 10
83.781069
 20
250.387868
 30
0.0
 10
83.473856
 20
250.333203
 30
0.0
 10
83.166609
 20
250.278725
 30
0.0
 10
83.104654
 20
250.104039
 30
0.0
 10
83.042649
 20
249.929372
 30
0.0
 10
82.980612
 20
249.754712
 30
0.0
 10
82.918562
 20
249.580061
 30
0.0
 10
82.743379
 20
249.580061
 30
0.0
 10
82.568195
 20
249.580061
 30
0.0
 10
82.393015
 20
249.580061
 30
0.0
 10
82.217832
 20
249.580061
 30
0.0
 10
82.163097
 20
249.333424
 30
0.0
 10
82.108326
 20
249.086796
 30
0.0
 10
82.053531
 20
248.840175
 30
0.0
 10
81.998722
 20
248.593557
 30
0.0
 10
81.687723
 20
248.475674
 30
0.0
 10
81.440232
 20
248.259097
 30
0.0
 10
81.275616
 20
247.972815
 30
0.0
 10
81.213240
 20
247.645811
 30
0.0
 10
81.202631
 20
247.451684
 30
0.0
 10
81.208610
 20
247.255879
 30
0.0
 10
81.220781
 20
247.061640
 30
0.0
 10
81.228745
 20
246.872215
 30
0.0
 10
81.096776
 20
246.766638
 30
0.0
 10
80.976256
 20
246.646589
 30
0.0
 10
80.865451
 20
246.519205
 30
0.0
 10
80.762626
 20
246.391626
 30
0.0
 10
80.499545
 20
246.354933
 30
0.0
 10
80.234388
 20
246.341307
 30
0.0
 10
79.968378
 20
246.340513
 30
0.0
 10
79.702742
 20
246.342101
 30
0.0
 10
79.517028
 20
246.070530
 30
0.0
 10
79.321954
 20
245.804962
 30
0.0
 10
79.107985
 20
245.556172
 30
0.0
 10
78.865582
 20
245.334925
 30
0.0
 10
78.707904
 20
245.018345
 30
0.0
 10
78.671375
 20
244.668908
 30
0.0
 10
78.711409
 20
244.309217
 30
0.0
 10
78.783418
 20
243.961883
 30
0.0
 10
78.804082
 20
243.864691
 30
0.0
 10
78.840933
 20
243.757505
 30
0.0
 10
78.838288
 20
243.680805
 30
0.0
 10
78.740508
 20
243.675090
 30
0.0
 10
78.040566
 20
243.675884
 30
0.0
 10
77.340846
 20
243.690621
 30
0.0
 10
76.641259
 20
243.712979
 30
0.0
 10
75.941711
 20
243.736606
 30
0.0
 10
76.085195
 20
243.590127
 30
0.0
 10
76.228332
 20
243.443133
 30
0.0
 10
76.371175
 20
243.295728
 30
0.0
 10
76.513770
 20
243.148011
 30
0.0
 10
76.118831
 20
242.712766
 30
0.0
 10
75.723896
 20
242.277521
 30
0.0
 10
75.328957
 20
241.842277
 30
0.0
 10
74.934022
 20
241.407032
 30
0.0
 10
74.410911
 20
241.805568
 30
0.0
 10
73.887830
 20
242.204142
 30
0.0
 10
73.364752
 20
242.602716
 30
0.0
 10
72.841644
 20
243.001249
 30
0.0
 10
72.560146
 20
243.541124
 30
0.0
 10
72.290652
 20
244.087052
 30
0.0
 10
72.025608
 20
244.635136
 30
0.0
 10
71.757471
 20
245.181480
 30
0.0
 10
71.230604
 20
245.953118
 30
0.0
 10
70.639305
 20
246.676677
 30
0.0
 10
70.002477
 20
247.362414
 30
0.0
 10
69.339013
 20
248.020583
 30
0.0
 10
68.524647
 20
248.744663
 30
0.0
 10
67.661933
 20
249.412813
 30
0.0
 10
66.740400
 20
249.991139
 30
0.0
 10
65.749570
 20
250.445757
 30
0.0
 10
64.629946
 20
250.814736
 30
0.0
 10
63.479043
 20
251.071187
 30
0.0
 10
62.308563
 20
251.215940
 30
0.0
 10
61.130212
 20
251.249841
 30
0.0
 10
60.045180
 20
251.171255
 30
0.0
 10
58.972067
 20
250.980784
 30
0.0
 10
57.936615
 20
250.653409
 30
0.0
 10
56.964575
 20
250.164121
 30
0.0
 10
55.879156
 20
249.406060
 30
0.0
 10
54.888347
 20
248.528752
 30
0.0
 10
53.984547
 20
247.558851
 30
0.0
 10
53.160158
 20
246.522999
 30
0.0
 10
52.444224
 20
246.524587
 30
0.0
 10
51.727415
 20
246.517575
 30
0.0
 10
51.012551
 20
246.480436
 30
0.0
 10
50.302452
 20
246.391684
 30
0.0
 10
49.967359
 20
246.286570
 30
0.0
 10
49.670775
 20
246.104598
 30
0.0
 10
49.416531
 20
245.863467
 30
0.0
 10
49.208460
 20
245.580879
 30
0.0
 10
49.114650
 20
245.452453
 30
0.0
 10
49.020873
 20
245.324048
 30
0.0
 10
48.927100
 20
245.195645
 30
0.0
 10
48.833289
 20
245.067217
 30
0.0
 10
50.168281
 20
244.829449
 30
0.0
 10
51.503768
 20
244.593938
 30
0.0
 10
52.838821
 20
244.356451
 30
0.0
 10
54.172499
 20
244.112751
 30
0.0
 10
54.387952
 20
244.013916
 30
0.0
 10
54.545622
 20
243.842691
 30
0.0
 10
54.638041
 20
243.625756
 30
0.0
 10
54.657726
 20
243.389798
 30
0.0
 10
54.717853
 20
243.206103
 30
0.0
 10
54.782369
 20
243.021842
 30
0.0
 10
54.837013
 20
242.836300
 30
0.0
 10
54.867533
 20
242.648758
 30
0.0
 10
54.684602
 20
242.395563
 30
0.0
 10
54.532475
 20
242.121632
 30
0.0
 10
54.423078
 20
241.829627
 30
0.0
 10
54.368338
 20
241.522213
 30
0.0
 10
53.253299
 20
240.246916
 30
0.0
 10
52.136657
 20
238.972709
 30
0.0
 10
51.021454
 20
237.697494
 30
0.0
 10
49.910731
 20
236.419165
 30
0.0
 10
49.731274
 20
236.095143
 30
0.0
 10
49.551837
 20
235.771142
 30
0.0
 10
49.372401
 20
235.447141
 30
0.0
 10
49.192945
 20
235.123119
 30
0.0
 10
49.558226
 20
235.260105
 30
0.0
 10
49.925243
 20
235.393532
 30
0.0
 10
50.290688
 20
235.530117
 30
0.0
 10
50.651252
 20
235.676575
 30
0.0
 10
51.519114
 20
236.224582
 30
0.0
 10
52.393880
 20
236.762578
 30
0.0
 10
53.283710
 20
237.274079
 30
0.0
 10
54.196772
 20
237.742598
 30
0.0
 10
54.326608
 20
237.800446
 30
0.0
 10
54.462191
 20
237.843766
 30
0.0
 10
54.595808
 20
237.843237
 30
0.0
 10
54.719739
 20
237.769873
 30
0.0
 10
54.754587
 20
237.630462
 30
0.0
 10
54.716291
 20
237.487171
 30
0.0
 10
54.646000
 20
237.345447
 30
0.0
 10
54.584862
 20
237.210735
 30
0.0
 10
54.162016
 20
236.265011
 30
0.0
 10
53.779764
 20
235.300557
 30
0.0
 10
53.465069
 20
234.313992
 30
0.0
 10
53.244893
 20
233.301929
 30
0.0
 10
53.230341
 20
233.052607
 30
0.0
 10
53.224441
 20
232.803351
 30
0.0
 10
53.226293
 20
232.554174
 30
0.0
 10
53.234654
 20
232.305090
 30
0.0
 10
52.703807
 20
232.226929
 30
0.0
 10
52.172960
 20
232.148769
 30
0.0
 10
51.642116
 20
232.070608
 30
0.0
 10
51.111270
 20
231.992448
 30
0.0
 10
51.113942
 20
232.499508
 30
0.0
 10
51.156841
 20
233.009114
 30
0.0
 10
51.239484
 20
233.540070
 30
0.0
 10
51.361380
 20
234.111181
 30
0.0
 10
51.358999
 20
234.109858
 30
0.0
 10
51.356618
 20
234.108535
 30
0.0
 10
51.354236
 20
234.107212
 30
0.0
 10
51.351855
 20
234.105889
 30
0.0
 10
50.723322
 20
233.791564
 30
0.0
 10
50.081061
 20
233.506629
 30
0.0
 10
49.428887
 20
233.244469
 30
0.0
 10
48.770617
 20
232.998462
 30
0.0
 10
48.777100
 20
226.018490
 30
0.0
 10
48.772046
 20
219.049941
 30
0.0
 10
48.770194
 20
212.081404
 30
0.0
 10
48.786148
 20
205.101457
 30
0.0
 10
49.011912
 20
205.165479
 30
0.0
 10
49.248886
 20
205.300445
 30
0.0
 10
49.484841
 20
205.439399
 30
0.0
 10
49.707539
 20
205.515388
 30
0.0
 10
50.374548
 20
205.880901
 30
0.0
 10
51.041189
 20
206.247151
 30
0.0
 10
51.707630
 20
206.613776
 30
0.0
 10
52.374041
 20
206.980415
 30
0.0
 10
52.619117
 20
206.590517
 30
0.0
 10
52.864192
 20
206.200619
 30
0.0
 10
53.109268
 20
205.810718
 30
0.0
 10
53.354343
 20
205.420820
 30
0.0
 10
53.451049
 20
205.230765
 30
0.0
 10
53.569468
 20
205.093277
 30
0.0
 10
53.689750
 20
205.001220
 30
0.0
 10
53.792044
 20
204.947462
 30
0.0
 10
55.815387
 20
204.932407
 30
0.0
 10
57.838761
 20
204.926428
 30
0.0
 10
59.862170
 20
204.923332
 30
0.0
 10
61.885605
 20
204.916956
 30
0.0
 10
65.107355
 20
204.909468
 30
0.0
 10
68.329138
 20
204.902086
 30
0.0
 10
71.550924
 20
204.894651
 30
0.0
  0
LWPOLYLINE
  5
101
100
AcDbEntity
  8
cut
 62
7
100
AcDbPolyline
 90
64
 70
1
 10
55.112920
 20
206.380427
 30
0.0
 10
54.867715
 20
206.770973
 30
0.0
 10
54.622510
 20
207.161517
 30
0.0
 10
54.377305
 20
207.552063
 30
0.0
 10
54.132099
 20
207.942606
 30
0.0
 10
54.913909
 20
208.367982
 30
0.0
 10
55.696914
 20
208.791109
 30
0.0
 10
56.481576
 20
209.211146
 30
0.0
 10
57.268343
 20
209.627256
 30
0.0
 10
57.505410
 20
209.745429
 30
0.0
 10
57.741508
 20
209.868215
 30
0.0
 10
57.970082
 20
209.992862
 30
0.0
 10
58.184566
 20
210.116632
 30
0.0
 10
58.599010
 20
210.380464
 30
0.0
 10
58.996768
 20
210.670984
 30
0.0
 10
59.367344
 20
210.993482
 30
0.0
 10
59.700237
 20
211.353249
 30
0.0
 10
59.916489
 20
211.969691
 30
0.0
 10
60.256889
 20
212.530743
 30
0.0
 10
60.716486
 20
212.990488
 30
0.0
 10
61.290319
 20
213.303001
 30
0.0
 10
61.588650
 20
213.662845
 30
0.0
 10
61.853125
 20
214.010589
 30
0.0
 10
62.066803
 20
214.320670
 30
0.0
 10
62.212744
 20
214.567524
 30
0.0
 10
62.396217
 20
214.846178
 30
0.0
 10
62.827985
 20
215.446700
 30
0.0
 10
63.265164
 20
216.044820
 30
0.0
 10
63.464864
 20
216.316253
 30
0.0
 10
63.826949
 20
216.154251
 30
0.0
 10
64.193799
 20
216.002764
 30
0.0
 10
64.565541
 20
215.862554
 30
0.0
 10
64.942294
 20
215.734376
 30
0.0
 10
65.051927
 20
215.701618
 30
0.0
 10
65.161512
 20
215.668709
 30
0.0
 10
65.271431
 20
215.636980
 30
0.0
 10
65.382061
 20
215.607770
 30
0.0
 10
65.154151
 20
215.227509
 30
0.0
 10
64.928880
 20
214.855084
 30
0.0
 10
64.696750
 20
214.486546
 30
0.0
 10
64.448267
 20
214.117939
 30
0.0
 10
64.028339
 20
213.570233
 30
0.0
 10
63.614864
 20
213.017637
 30
0.0
 10
63.205971
 20
212.461610
 30
0.0
 10
62.799788
 20
211.903604
 30
0.0
 10
62.495671
 20
211.848200
 30
0.0
 10
62.208696
 20
211.722460
 30
0.0
 10
61.983044
 20
211.520117
 30
0.0
 10
61.862894
 20
211.234912
 30
0.0
 10
61.841145
 20
211.104218
 30
0.0
 10
61.840351
 20
210.969447
 30
0.0
 10
61.843050
 20
210.837053
 30
0.0
 10
61.831911
 20
210.713495
 30
0.0
 10
61.512924
 20
210.414701
 30
0.0
 10
61.203401
 20
210.105316
 30
0.0
 10
60.907507
 20
209.783760
 30
0.0
 10
60.629398
 20
209.448456
 30
0.0
 10
60.219580
 20
209.184513
 30
0.0
 10
59.808544
 20
208.922753
 30
0.0
 10
59.389227
 20
208.675409
 30
0.0
 10
58.954567
 20
208.454718
 30
0.0
 10
57.990158
 20
207.943694
 30
0.0
 10
57.029382
 20
207.425793
 30
0.0
 10
56.070791
 20
206.903781
 30
0.0
  0
LWPOLYLINE
  5
102
100
AcDbEntity
  8
cut
 62
7
100
AcDbPolyline
 90
68
 70
1
 10
65.723125
 20
210.431859
 30
0.0
 10
65.524536
 20
210.664600
 30
0.0
 10
65.322691
 20
210.894597
 30
0.0
 10
65.122240
 20
211.125769
 30
0.0
 10
64.927824
 20
211.362034
 30
0.0
 10
65.322241
 20
212.063989
 30
0.0
 10
65.733787
 20
212.756351
 30
0.0
 10
66.162481
 20
213.438203
 30
0.0
 10
66.608341
 20
214.108636
 30
0.0
 10
66.825067
 20
214.369409
 30
0.0
 10
67.051733
 20
214.621668
 30
0.0
 10
67.281497
 20
214.871268
 30
0.0
 10
67.507512
 20
215.124078
 30
0.0
 10
68.984405
 20
215.275816
 30
0.0
 10
70.441204
 20
215.559061
 30
0.0
 10
71.877063
 20
215.942495
 30
0.0
 10
73.291137
 20
216.394803
 30
0.0
 10
74.015804
 20
216.654483
 30
0.0
 10
74.731179
 20
216.938162
 30
0.0
 10
75.438249
 20
217.242131
 30
0.0
 10
76.137992
 20
217.562689
 30
0.0
 10
76.173888
 20
217.589391
 30
0.0
 10
76.203770
 20
217.606880
 30
0.0
 10
76.228139
 20
217.615982
 30
0.0
 10
76.247533
 20
217.617569
 30
0.0
 10
76.247533
 20
217.617702
 30
0.0
 10
76.247533
 20
217.617834
 30
0.0
 10
76.247533
 20
217.617966
 30
0.0
 10
76.247533
 20
217.618098
 30
0.0
 10
76.281082
 20
217.585121
 30
0.0
 10
76.288808
 20
217.512821
 30
0.0
 10
76.284945
 20
217.422881
 30
0.0
 10
76.283622
 20
217.336979
 30
0.0
 10
76.283622
 20
217.336449
 30
0.0
 10
76.283622
 20
217.335920
 30
0.0
 10
76.283622
 20
217.335391
 30
0.0
 10
76.283622
 20
217.334862
 30
0.0
 10
76.218799
 20
217.196564
 30
0.0
 10
76.164604
 20
217.053647
 30
0.0
 10
76.121728
 20
216.907163
 30
0.0
 10
76.090867
 20
216.758152
 30
0.0
 10
75.838616
 20
216.521403
 30
0.0
 10
75.662631
 20
216.228374
 30
0.0
 10
75.559817
 20
215.899609
 30
0.0
 10
75.527080
 20
215.555642
 30
0.0
 10
75.524117
 20
215.438030
 30
0.0
 10
75.523588
 20
215.321626
 30
0.0
 10
75.496796
 20
215.216296
 30
0.0
 10
75.414902
 20
215.131896
 30
0.0
 10
75.231403
 20
214.909821
 30
0.0
 10
75.089293
 20
214.659869
 30
0.0
 10
74.998755
 20
214.388324
 30
0.0
 10
74.969968
 20
214.101468
 30
0.0
 10
74.867765
 20
213.994233
 30
0.0
 10
74.780669
 20
213.873160
 30
0.0
 10
74.701405
 20
213.748289
 30
0.0
 10
74.622702
 20
213.629661
 30
0.0
 10
72.728804
 20
212.899469
 30
0.0
 10
70.829316
 20
212.183647
 30
0.0
 10
68.921728
 20
211.489970
 30
0.0
 10
67.003528
 20
210.826215
 30
0.0
 10
66.684922
 20
210.722803
 30
0.0
 10
66.365626
 20
210.621528
 30
0.0
 10
66.045146
 20
210.524154
 30
0.0
 10
65.722987
 20
210.432441
 30
0.0
 10
65.722987
 20
210.432454
 30
0.0
 10
65.722987
 20
210.432468
 30
0.0
 10
65.722987
 20
210.432478
 30
0.0
  0
LWPOLYLINE
  5
103
100
AcDbEntity
  8
cut
 62
7
100
AcDbPolyline
 90
64
 70
1
 10
102.156559
 20
214.646590
 30
0.0
 10
101.549589
 20
215.097447
 30
0.0
 10
100.932311
 20
215.534163
 30
0.0
 10
100.307558
 20
215.960270
 30
0.0
 10
99.678156
 20
216.379298
 30
0.0
 10
99.910209
 20
216.507730
 30
0.0
 10
100.141437
 20
216.637730
 30
0.0
 10
100.372405
 20
216.768222
 30
0.0
 10
100.603682
 20
216.898130
 30
0.0
 10
98.922385
 20
218.593760
 30
0.0
 10
97.241167
 20
220.289469
 30
0.0
 10
95.559914
 20
221.985142
 30
0.0
 10
93.878511
 20
223.680663
 30
0.0
 10
93.344569
 20
223.254885
 30
0.0
 10
92.792928
 20
222.852552
 30
0.0
 10
92.221582
 20
222.479283
 30
0.0
 10
91.628518
 20
222.140706
 30
0.0
 10
91.432539
 20
222.029070
 30
0.0
 10
91.236551
 20
221.917464
 30
0.0
 10
91.040566
 20
221.805855
 30
0.0
 10
90.844587
 20
221.694222
 30
0.0
 10
90.325670
 20
221.980316
 30
0.0
 10
89.802451
 20
222.258805
 30
0.0
 10
89.278756
 20
222.536126
 30
0.0
 10
88.758411
 20
222.818701
 30
0.0
 10
88.557595
 20
222.993871
 30
0.0
 10
88.371048
 20
223.181587
 30
0.0
 10
88.195634
 20
223.374024
 30
0.0
 10
88.028222
 20
223.563357
 30
0.0
 10
87.786946
 20
223.852489
 30
0.0
 10
87.548585
 20
224.143890
 30
0.0
 10
87.312717
 20
224.437255
 30
0.0
 10
87.078926
 20
224.732279
 30
0.0
 10
88.908141
 20
226.046022
 30
0.0
 10
90.737359
 20
227.359768
 30
0.0
 10
92.566575
 20
228.673512
 30
0.0
 10
94.395793
 20
229.987255
 30
0.0
 10
94.884523
 20
229.320185
 30
0.0
 10
95.369994
 20
228.650681
 30
0.0
 10
95.853864
 20
227.980124
 30
0.0
 10
96.337792
 20
227.309897
 30
0.0
 10
96.797191
 20
226.672182
 30
0.0
 10
97.256010
 20
226.031647
 30
0.0
 10
97.669260
 20
225.364646
 30
0.0
 10
97.991956
 20
224.647527
 30
0.0
 10
98.163782
 20
224.145438
 30
0.0
 10
98.349501
 20
223.645791
 30
0.0
 10
98.586020
 20
223.173139
 30
0.0
 10
98.910246
 20
222.752036
 30
0.0
 10
99.535940
 20
221.992661
 30
0.0
 10
100.135748
 20
221.217554
 30
0.0
 10
100.732071
 20
220.439448
 30
0.0
 10
101.347307
 20
219.671088
 30
0.0
 10
101.506361
 20
219.505303
 30
0.0
 10
101.668011
 20
219.342330
 30
0.0
 10
101.820850
 20
219.171782
 30
0.0
 10
101.953470
 20
218.983274
 30
0.0
 10
102.392440
 20
218.340488
 30
0.0
 10
102.834641
 20
217.698680
 30
0.0
 10
103.288039
 20
217.064971
 30
0.0
 10
103.760595
 20
216.446478
 30
0.0
 10
103.359585
 20
215.996507
 30
0.0
 10
102.958577
 20
215.546535
 30
0.0
 10
102.557567
 20
215.096561
 30
0.0
  0
LWPOLYLINE
  5
104
100
AcDbEntity
  8
cut
 62
7
100
AcDbPolyline
 90
36
 70
1
 10
78.296000
 20
215.061551
 30
0.0
 10
78.313701
 20
215.297364
 30
0.0
 10
78.302721
 20
215.691355
 30
0.0
 10
78.266936
 20
216.006913
 30
0.0
 10
78.210198
 20
216.318838
 30
0.0
 10
78.148717
 20
216.643802
 30
0.0
 10
78.090527
 20
216.968959
 30
0.0
 10
78.049927
 20
217.296040
 30
0.0
 10
78.041222
 20
217.626769
 30
0.0
 10
78.036063
 20
217.776105
 30
0.0
 10
78.030904
 20
217.925460
 30
0.0
 10
78.025744
 20
218.074814
 30
0.0
 10
78.020585
 20
218.224148
 30
0.0
 10
78.370523
 20
218.279385
 30
0.0
 10
78.722236
 20
218.322567
 30
0.0
 10
79.075296
 20
218.352068
 30
0.0
 10
79.429285
 20
218.366250
 30
0.0
 10
79.838037
 20
218.325044
 30
0.0
 10
80.231520
 20
218.206421
 30
0.0
 10
80.608490
 20
218.034775
 30
0.0
 10
80.967694
 20
217.834498
 30
0.0
 10
81.323246
 20
217.601205
 30
0.0
 10
81.670610
 20
217.355949
 30
0.0
 10
82.014814
 20
217.106058
 30
0.0
 10
82.360889
 20
216.858847
 30
0.0
 10
81.663654
 20
216.500808
 30
0.0
 10
80.960891
 20
216.153765
 30
0.0
 10
80.247577
 20
215.829954
 30
0.0
 10
79.518685
 20
215.541617
 30
0.0
 10
79.213120
 20
215.421395
 30
0.0
 10
78.907770
 20
215.300457
 30
0.0
 10
78.602210
 20
215.150782
 30
0.0
 10
78.296021
 20
215.061543
 30
0.0
 10
78.296019
 20
215.061543
 30
0.0
 10
78.296016
 20
215.061543
 30
0.0
 10
78.296016
 20
215.061543
 30
0.0
  0
LWPOLYLINE
  5
105
100
AcDbEntity
  8
cut
 62
7
100
AcDbPolyline
 90
36
 70
1
 10
60.572018
 20
215.801557
 30
0.0
 10
59.585477
 20
216.460681
 30
0.0
 10
58.641703
 20
217.181263
 30
0.0
 10
57.740405
 20
217.954969
 30
0.0
 10
56.881287
 20
218.773468
 30
0.0
 10
55.151158
 20
220.748379
 30
0.0
 10
53.743461
 20
222.961213
 30
0.0
 10
52.646099
 20
225.349287
 30
0.0
 10
51.846970
 20
227.849917
 30
0.0
 10
51.712781
 20
228.385986
 30
0.0
 10
51.595147
 20
228.925665
 30
0.0
 10
51.489349
 20
229.467876
 30
0.0
 10
51.390667
 20
230.011541
 30
0.0
 10
51.911436
 20
230.088281
 30
0.0
 10
52.432204
 20
230.165021
 30
0.0
 10
52.952973
 20
230.241761
 30
0.0
 10
53.473742
 20
230.318500
 30
0.0
 10
53.484537
 20
230.252998
 30
0.0
 10
53.495067
 20
230.187407
 30
0.0
 10
53.505651
 20
230.121862
 30
0.0
 10
53.516605
 20
230.056499
 30
0.0
 10
53.892302
 20
228.354461
 30
0.0
 10
54.382067
 20
226.680355
 30
0.0
 10
55.001597
 20
225.051527
 30
0.0
 10
55.766597
 20
223.485326
 30
0.0
 10
56.412985
 20
222.453438
 30
0.0
 10
57.136978
 20
221.474361
 30
0.0
 10
57.924960
 20
220.544882
 30
0.0
 10
58.763313
 20
219.661788
 30
0.0
 10
59.450484
 20
219.017093
 30
0.0
 10
60.168864
 20
218.403964
 30
0.0
 10
60.917757
 20
217.827662
 30
0.0
 10
61.696468
 20
217.293455
 30
0.0
 10
61.415348
 20
216.920480
 30
0.0
 10
61.134228
 20
216.547507
 30
0.0
 10
60.853109
 20
216.174532
 30
0.0
  0
LWPOLYLINE
  5
106
100
AcDbEntity
  8
cut
 62
7
100
AcDbPolyline
 90
36
 70
1
 10
126.693562
 20
226.121857
 30
0.0
 10
126.682767
 20
226.187360
 30
0.0
 10
126.672236
 20
226.252950
 30
0.0
 10
126.661653
 20
226.318493
 30
0.0
 10
126.650699
 20
226.383855
 30
0.0
 10
126.275001
 20
228.085893
 30
0.0
 10
125.785239
 20
229.760002
 30
0.0
 10
125.165709
 20
231.388830
 30
0.0
 10
124.400709
 20
232.955031
 30
0.0
 10
123.754319
 20
233.986917
 30
0.0
 10
123.030326
 20
234.965994
 30
0.0
 10
122.242344
 20
235.895473
 30
0.0
 10
121.403991
 20
236.778570
 30
0.0
 10
120.716820
 20
237.423264
 30
0.0
 10
119.998442
 20
238.036394
 30
0.0
 10
119.249549
 20
238.612696
 30
0.0
 10
118.470838
 20
239.146903
 30
0.0
 10
118.751958
 20
239.519878
 30
0.0
 10
119.033078
 20
239.892853
 30
0.0
 10
119.314198
 20
240.265826
 30
0.0
 10
119.595318
 20
240.638801
 30
0.0
 10
120.581859
 20
239.979676
 30
0.0
 10
121.525633
 20
239.259094
 30
0.0
 10
122.426931
 20
238.485389
 30
0.0
 10
123.286046
 20
237.666890
 30
0.0
 10
125.016175
 20
235.691979
 30
0.0
 10
126.423872
 20
233.479147
 30
0.0
 10
127.521237
 20
231.091071
 30
0.0
 10
128.320366
 20
228.590441
 30
0.0
 10
128.454554
 20
228.054371
 30
0.0
 10
128.572188
 20
227.514692
 30
0.0
 10
128.677987
 20
226.972482
 30
0.0
 10
128.776669
 20
226.428816
 30
0.0
 10
128.255900
 20
226.352076
 30
0.0
 10
127.735128
 20
226.275336
 30
0.0
 10
127.214360
 20
226.198597
 30
0.0
  0
LWPOLYLINE
  5
107
100
AcDbEntity
  8
cut
 62
7
100
AcDbPolyline
 90
64
 70
1
 10
85.865563
 20
226.323395
 30
0.0
 10
85.352528
 20
227.022295
 30
0.0
 10
84.843617
 20
227.724290
 30
0.0
 10
84.336668
 20
228.427603
 30
0.0
 10
83.829512
 20
229.130458
 30
0.0
 10
83.370113
 20
229.768172
 30
0.0
 10
82.911297
 20
230.408707
 30
0.0
 10
82.498046
 20
231.075709
 30
0.0
 10
82.175350
 20
231.792828
 30
0.0
 10
82.003524
 20
232.294919
 30
0.0
 10
81.817805
 20
232.794566
 30
0.0
 10
81.581286
 20
233.267218
 30
0.0
 10
81.257061
 20
233.688321
 30
0.0
 10
80.631366
 20
234.447696
 30
0.0
 10
80.031558
 20
235.222804
 30
0.0
 10
79.435235
 20
236.000909
 30
0.0
 10
78.820000
 20
236.769270
 30
0.0
 10
78.660945
 20
236.935055
 30
0.0
 10
78.499293
 20
237.098028
 30
0.0
 10
78.346454
 20
237.268575
 30
0.0
 10
78.213834
 20
237.457083
 30
0.0
 10
77.769223
 20
238.108307
 30
0.0
 10
77.321280
 20
238.758505
 30
0.0
 10
76.861633
 20
239.400202
 30
0.0
 10
76.381904
 20
240.025917
 30
0.0
 10
76.785367
 20
240.470592
 30
0.0
 10
77.188830
 20
240.915269
 30
0.0
 10
77.592296
 20
241.359944
 30
0.0
 10
77.995759
 20
241.804621
 30
0.0
 10
78.606232
 20
241.350707
 30
0.0
 10
79.227241
 20
240.911263
 30
0.0
 10
79.855854
 20
240.482609
 30
0.0
 10
80.489147
 20
240.061057
 30
0.0
 10
80.257094
 20
239.932625
 30
0.0
 10
80.025867
 20
239.802625
 30
0.0
 10
79.794899
 20
239.672135
 30
0.0
 10
79.563622
 20
239.542227
 30
0.0
 10
81.244919
 20
237.846597
 30
0.0
 10
82.926137
 20
236.150888
 30
0.0
 10
84.607389
 20
234.455216
 30
0.0
 10
86.288793
 20
232.759694
 30
0.0
 10
86.822735
 20
233.185472
 30
0.0
 10
87.374375
 20
233.587806
 30
0.0
 10
87.945722
 20
233.961075
 30
0.0
 10
88.538786
 20
234.299651
 30
0.0
 10
88.734765
 20
234.411287
 30
0.0
 10
88.930750
 20
234.522894
 30
0.0
 10
89.126737
 20
234.634503
 30
0.0
 10
89.322717
 20
234.746136
 30
0.0
 10
89.841634
 20
234.460042
 30
0.0
 10
90.364852
 20
234.181552
 30
0.0
 10
90.888550
 20
233.904232
 30
0.0
 10
91.408896
 20
233.621657
 30
0.0
 10
91.609712
 20
233.446487
 30
0.0
 10
91.796259
 20
233.258770
 30
0.0
 10
91.971670
 20
233.066333
 30
0.0
 10
92.139082
 20
232.877000
 30
0.0
 10
92.406025
 20
232.557053
 30
0.0
 10
92.669614
 20
232.234489
 30
0.0
 10
92.930197
 20
231.909556
 30
0.0
 10
93.188115
 20
231.582505
 30
0.0
 10
91.357476
 20
230.267727
 30
0.0
 10
89.526838
 20
228.952951
 30
0.0
 10
87.696201
 20
227.638173
 30
0.0
  0
LWPOLYLINE
  5
108
100
AcDbEntity
  8
cut
 62
7
100
AcDbPolyline
 90
36
 70
1
 10
100.738040
 20
238.074099
 30
0.0
 10
100.329291
 20
238.116713
 30
0.0
 10
99.935805
 20
238.233926
 30
0.0
 10
99.558837
 20
238.405572
 30
0.0
 10
99.199634
 20
238.605848
 30
0.0
 10
98.844081
 20
238.839145
 30
0.0
 10
98.496715
 20
239.084400
 30
0.0
 10
98.152511
 20
239.334291
 30
0.0
 10
97.806436
 20
239.581499
 30
0.0
 10
98.503668
 20
239.939541
 30
0.0
 10
99.206431
 20
240.286585
 30
0.0
 10
99.919748
 20
240.610395
 30
0.0
 10
100.648640
 20
240.898733
 30
0.0
 10
100.954205
 20
241.018954
 30
0.0
 10
101.259558
 20
241.139892
 30
0.0
 10
101.565115
 20
241.260267
 30
0.0
 10
101.871304
 20
241.378806
 30
0.0
 10
101.853603
 20
241.065142
 30
0.0
 10
101.864583
 20
240.749005
 30
0.0
 10
101.900368
 20
240.433444
 30
0.0
 10
101.957105
 20
240.121519
 30
0.0
 10
102.018587
 20
239.796555
 30
0.0
 10
102.076779
 20
239.471398
 30
0.0
 10
102.117379
 20
239.144318
 30
0.0
 10
102.126084
 20
238.813589
 30
0.0
 10
102.131243
 20
238.664252
 30
0.0
 10
102.136403
 20
238.514898
 30
0.0
 10
102.141562
 20
238.365543
 30
0.0
 10
102.146722
 20
238.216210
 30
0.0
 10
101.796784
 20
238.160973
 30
0.0
 10
101.445070
 20
238.117790
 30
0.0
 10
101.092010
 20
238.086791
 30
0.0
 10
100.738022
 20
238.074091
 30
0.0
 10
100.738022
 20
238.074091
 30
0.0
 10
100.738024
 20
238.074091
 30
0.0
 10
100.738024
 20
238.074091
 30
0.0
  0
LWPOLYLINE
  5
109
100
AcDbEntity
  8
cut
 62
7
100
AcDbPolyline
 90
64
 70
1
 10
103.919758
 20
238.822373
 30
0.0
 10
103.886209
 20
238.855350
 30
0.0
 10
103.878483
 20
238.927650
 30
0.0
 10
103.882346
 20
239.017590
 30
0.0
 10
103.883669
 20
239.103492
 30
0.0
 10
103.883669
 20
239.104022
 30
0.0
 10
103.883669
 20
239.104551
 30
0.0
 10
103.883669
 20
239.105080
 30
0.0
 10
103.883669
 20
239.105609
 30
0.0
 10
103.948492
 20
239.243907
 30
0.0
 10
104.002686
 20
239.386822
 30
0.0
 10
104.045562
 20
239.533305
 30
0.0
 10
104.076423
 20
239.682316
 30
0.0
 10
104.328677
 20
239.919065
 30
0.0
 10
104.504664
 20
240.212097
 30
0.0
 10
104.607476
 20
240.540863
 30
0.0
 10
104.640213
 20
240.884829
 30
0.0
 10
104.643176
 20
241.002441
 30
0.0
 10
104.643706
 20
241.118845
 30
0.0
 10
104.670497
 20
241.224176
 30
0.0
 10
104.752391
 20
241.308575
 30
0.0
 10
104.935890
 20
241.530653
 30
0.0
 10
105.078001
 20
241.780602
 30
0.0
 10
105.168538
 20
242.052147
 30
0.0
 10
105.197325
 20
242.339003
 30
0.0
 10
105.299528
 20
242.446238
 30
0.0
 10
105.386624
 20
242.567312
 30
0.0
 10
105.465888
 20
242.692182
 30
0.0
 10
105.544591
 20
242.810808
 30
0.0
 10
107.438489
 20
243.540999
 30
0.0
 10
109.337975
 20
244.256824
 30
0.0
 10
111.245562
 20
244.950501
 30
0.0
 10
113.163762
 20
245.614256
 30
0.0
 10
113.482368
 20
245.717668
 30
0.0
 10
113.801665
 20
245.818943
 30
0.0
 10
114.122147
 20
245.916317
 30
0.0
 10
114.444306
 20
246.008030
 30
0.0
 10
114.642894
 20
245.775289
 30
0.0
 10
114.844740
 20
245.545292
 30
0.0
 10
115.045191
 20
245.314118
 30
0.0
 10
115.239607
 20
245.077853
 30
0.0
 10
114.845189
 20
244.375897
 30
0.0
 10
114.433643
 20
243.683536
 30
0.0
 10
114.004947
 20
243.001683
 30
0.0
 10
113.559087
 20
242.331250
 30
0.0
 10
113.342361
 20
242.070477
 30
0.0
 10
113.115698
 20
241.818221
 30
0.0
 10
112.885934
 20
241.568618
 30
0.0
 10
112.659919
 20
241.315809
 30
0.0
 10
111.183025
 20
241.164073
 30
0.0
 10
109.726224
 20
240.880828
 30
0.0
 10
108.290365
 20
240.497394
 30
0.0
 10
106.876291
 20
240.045086
 30
0.0
 10
106.151624
 20
239.785406
 30
0.0
 10
105.436249
 20
239.501727
 30
0.0
 10
104.729179
 20
239.197756
 30
0.0
 10
104.029438
 20
238.877200
 30
0.0
 10
103.993542
 20
238.850498
 30
0.0
 10
103.963660
 20
238.833009
 30
0.0
 10
103.939266
 20
238.823907
 30
0.0
 10
103.919872
 20
238.822320
 30
0.0
 10
103.919872
 20
238.822309
 30
0.0
 10
103.919872
 20
238.822296
 30
0.0
 10
103.919872
 20
238.822285
 30
0.0
  0
LWPOLYLINE
  5
10a
100
AcDbEntity
  8
cut
 62
7
100
AcDbPolyline
 90
64
 70
1
 10
116.702440
 20
240.124104
 30
0.0
 10
116.340358
 20
240.286106
 30
0.0
 10
115.973505
 20
240.437590
 30
0.0
 10
115.601763
 20
240.577801
 30
0.0
 10
115.225012
 20
240.705978
 30
0.0
 10
115.115379
 20
240.738739
 30
0.0
 10
115.005794
 20
240.771651
 30
0.0
 10
114.895876
 20
240.803377
 30
0.0
 10
114.785245
 20
240.832587
 30
0.0
 10
115.013155
 20
241.212849
 30
0.0
 10
115.238426
 20
241.585274
 30
0.0
 10
115.470556
 20
241.953812
 30
0.0
 10
115.719039
 20
242.322419
 30
0.0
 10
116.138968
 20
242.870125
 30
0.0
 10
116.552440
 20
243.422720
 30
0.0
 10
116.961332
 20
243.978747
 30
0.0
 10
117.367515
 20
244.536754
 30
0.0
 10
117.671633
 20
244.592157
 30
0.0
 10
117.958608
 20
244.717898
 30
0.0
 10
118.184260
 20
244.920241
 30
0.0
 10
118.304410
 20
245.205446
 30
0.0
 10
118.326159
 20
245.336139
 30
0.0
 10
118.326953
 20
245.470910
 30
0.0
 10
118.324254
 20
245.603305
 30
0.0
 10
118.335393
 20
245.726863
 30
0.0
 10
118.654380
 20
246.025657
 30
0.0
 10
118.963900
 20
246.335042
 30
0.0
 10
119.259794
 20
246.656598
 30
0.0
 10
119.537903
 20
246.991902
 30
0.0
 10
119.947724
 20
247.255845
 30
0.0
 10
120.358759
 20
247.517605
 30
0.0
 10
120.778076
 20
247.764948
 30
0.0
 10
121.212737
 20
247.985640
 30
0.0
 10
122.177145
 20
248.496664
 30
0.0
 10
123.137922
 20
249.014567
 30
0.0
 10
124.096512
 20
249.536577
 30
0.0
 10
125.054362
 20
250.059931
 30
0.0
 10
125.299567
 20
249.669387
 30
0.0
 10
125.544770
 20
249.278841
 30
0.0
 10
125.789975
 20
248.888297
 30
0.0
 10
126.035181
 20
248.497751
 30
0.0
 10
125.253371
 20
248.072375
 30
0.0
 10
124.470363
 20
247.649248
 30
0.0
 10
123.685704
 20
247.229212
 30
0.0
 10
122.898937
 20
246.813101
 30
0.0
 10
122.661870
 20
246.694928
 30
0.0
 10
122.425772
 20
246.572143
 30
0.0
 10
122.197198
 20
246.447495
 30
0.0
 10
121.982714
 20
246.323726
 30
0.0
 10
121.568270
 20
246.059894
 30
0.0
 10
121.170512
 20
245.769373
 30
0.0
 10
120.799936
 20
245.446875
 30
0.0
 10
120.467046
 20
245.087108
 30
0.0
 10
120.250794
 20
244.470666
 30
0.0
 10
119.910391
 20
243.909614
 30
0.0
 10
119.450797
 20
243.449869
 30
0.0
 10
118.876961
 20
243.137356
 30
0.0
 10
118.578630
 20
242.777433
 30
0.0
 10
118.314155
 20
242.429509
 30
0.0
 10
118.100477
 20
242.119250
 30
0.0
 10
117.954536
 20
241.872317
 30
0.0
 10
117.771063
 20
241.593746
 30
0.0
 10
117.339295
 20
240.993398
 30
0.0
 10
116.902116
 20
240.395458
 30
0.0
  0
ENDSEC
  0
SECTION
  2
OBJECTS
  0
DICTIONARY
  5
C
330
0
100
AcDbDictionary
  3
ACAD_GROUP
350
D
  3
ACAD_MLINESTYLE
350
17
  0
DICTIONARY
  5
D
330
C
100
AcDbDictionary
  0
DICTIONARY
  5
1A
330
C
100
AcDbDictionary
  0
DICTIONARY
  5
17
330
C
100
AcDbDictionary
  3
STANDARD
350
18
  0
DICTIONARY
  5
19
330
C
100
AcDbDictionary
  0
ENDSEC
  0
EOF
